<?xml version="1.0" standalone="no"?>
<!DOCTYPE svg PUBLIC "-//W3C//DTD SVG 1.1//EN" "http://www.w3.org/Graphics/SVG/1.1/DTD/svg11.dtd" >
<svg xmlns="http://www.w3.org/2000/svg">
<metadata>
This is a custom SVG webfont generated by Font Squirrel.
Copyright   : Copyright c 2011 by SAPO All rights reserved
Foundry     : SAPO
</metadata>
<defs>
<font id="webfontvzv2ZKie" horiz-adv-x="1087" >
<font-face units-per-em="2048" ascent="1638" descent="-410" />
<missing-glyph horiz-adv-x="552" />
<glyph unicode=" "  horiz-adv-x="552" />
<glyph unicode="&#x09;" horiz-adv-x="552" />
<glyph unicode="&#xa0;" horiz-adv-x="552" />
<glyph unicode="!" horiz-adv-x="507" d="M395 1495l-26 -1118q-4 -90 -93 -90h-51q-86 0 -88 92l-24 1118v6q0 86 90 86h104q86 0 88 -94zM379 137v-47q0 -90 -90 -90h-70q-84 0 -88 92v47q0 90 92 90h68q86 0 88 -92z" />
<glyph unicode="&#x22;" horiz-adv-x="733" d="M340 1513v-106q0 -12 -1 -30.5t-7 -66.5t-18.5 -85t-39 -68t-61.5 -31h-104q-10 2 -11 13v71q0 14 17 15h65q27 0 27 32v74h-47q-78 0 -78 78v104q0 76 78 76h104q76 0 76 -76zM651 1513v-106q0 -12 -1 -30.5t-7 -66.5t-18.5 -85t-39 -68t-61.5 -31h-104q-10 2 -10 13v71 q0 14 16 15h66q27 0 26 32v74h-47q-78 0 -78 78v104q0 76 78 76h104q76 0 76 -76z" />
<glyph unicode="#" horiz-adv-x="1609" d="M1538 586v-70q0 -88 -92 -88h-324l-71 -408q-14 -82 -97 -81h-69q-82 0 -82 73q0 16 2 27l67 389h-292l-74 -408q-14 -82 -96 -81h-70q-82 0 -82 73q0 16 2 27l68 389h-166q-90 0 -90 90v70q0 84 92 90h209l49 276h-260q-90 0 -90 90v70q0 88 92 88h301q16 94 72 357 q10 51 31.5 69.5t70.5 18.5h57q82 0 82 -78l-2 -23l-61 -342h295l57 344q35 98 104 99h68q84 0 84 -78l-2 -23l-61 -344h188q90 0 90 -92v-68q0 -90 -92 -90h-229l-50 -276h281q90 0 90 -90zM965 952h-293l-49 -276h295z" />
<glyph unicode="$" horiz-adv-x="1116" d="M1014 229q-125 -186 -338 -229q-16 -61 -88 -61h-51q-66 0 -82 55q-188 31 -314 156q-29 29 -28 55q0 29 30 61l25 26l29 30q10 10 25.5 19t29.5 9q29 0 51 -28q55 -70 143 -95v490l-151 61q-242 98 -242 348q0 113 47 230q125 184 351 231q16 59 88 60h53q63 0 82 -58 q178 -29 303 -153q29 -29 29 -56q0 -8 -2.5 -16t-8.5 -17l-11 -17q-5 -7 -14 -17t-15 -16l-16 -16l-15 -15q-27 -33 -55.5 -33t-51.5 31q-86 76 -137 90v-477l145 -58q240 -94 240 -346q0 -123 -51 -244zM449 1346q-102 -37 -140 -121q-23 -51 -22 -99q0 -78 61 -118 l101 -39v377zM809 360q23 55 22 107q0 82 -59 123l-92 35v-383q96 40 129 118z" />
<glyph unicode="%" horiz-adv-x="1445" d="M647 1228.5q0 -149.5 -72 -251.5q-80 -113 -225 -113t-227 113q-72 102 -72 251.5t72 252.5q82 113 227.5 112.5t224.5 -112.5q72 -103 72 -252.5zM1114 1538l-539 -1526q-27 -74 -102 -73h-70q-76 0 -75 69q0 16 6 39l538 1526q29 74 103 74h69q76 0 76 -70 q0 -16 -6 -39zM1395 366.5q0 -151.5 -72 -251.5q-80 -113 -225.5 -113t-227.5 113q-72 102 -71.5 251.5t71.5 251.5q82 113 227.5 113t225.5 -113q72 -100 72 -251.5zM463 1229q0 190 -113 190q-115 0 -114 -190q0 -193 114 -193q113 0 113 193zM1210 367q0 190 -112 190 q-115 0 -115 -190q0 -193 115 -193q112 0 112 193z" />
<glyph unicode="&#x26;" horiz-adv-x="1370" d="M1298 133q39 -53 39 -86q0 -49 -90 -49h-59q-74 0 -119 61l-121 160q-63 -123 -149 -174q-94 -57 -242 -57q-172 0 -256 30q-121 43 -195 177q-55 121 -55 251q0 215 158 361l172 160q-160 213 -160 389q0 86 43 151q98 147 305 148q213 0 342 -170q41 -63 41 -146 q0 -170 -174 -331l-69 -66l165 -227l64 157q23 43 35 54q23 18 61 18h68q78 0 78 -70q0 -20 -6 -38l-130 -355zM698 1380q-41 53 -120 54q-82 0 -117 -56q-12 -10 -12 -30q0 -53 63 -136l59 -79l93 79q53 57 53 107q-1 30 -19 61zM776 442l-254 338q-152 -145 -160 -155 q-80 -96 -79 -189q0 -55 24 -117q45 -74 109 -92q37 -10 139 -10q94 0 147 72q27 34 74 153z" />
<glyph unicode="'" horiz-adv-x="421" d="M340 1513v-106q0 -12 -1 -30.5t-7 -66.5t-18.5 -85t-39 -68t-61.5 -31h-104q-10 2 -11 13v71q0 14 17 15h65q27 0 27 32v74h-47q-78 0 -78 78v104q0 76 78 76h104q76 0 76 -76z" />
<glyph unicode="(" horiz-adv-x="782" d="M106 643q0 221 20.5 446.5t57.5 303.5q92 199 332 198h160q-18 -229 -111 -229h-41q-111 0 -143 -131q-25 -96 -25 -588q0 -508 25 -623q33 -160 145 -165q0 -2 6 -2q4 0 9 2h16q76 0 105 -226h-134q-242 0 -344 240q-37 88 -57.5 320.5t-20.5 453.5z" />
<glyph unicode=")" horiz-adv-x="675" d="M569 643q0 -221 -20.5 -453.5t-56.5 -320.5q-102 -240 -345 -240h-133q29 225 105 226h16q2 -2 8 -2q4 0 7 2q113 6 145 165q25 115 24 623q0 492 -24 588q-33 131 -143 131h-41q-92 0 -111 229h160q240 0 332 -198q37 -78 57 -303.5t20 -446.5z" />
<glyph unicode="*" horiz-adv-x="952" d="M901 1200q0 -57 -61 -57h-127l61 -56q47 -51 47 -83q0 -23 -16 -39l-53 -54q-16 -16 -39 -16q-27 0 -47 20l-95 95v-138q0 -61 -61 -61h-74q-57 0 -57 63v132l-55 -62q-51 -47 -86 -47q-20 0 -37 16l-51 54q-18 18 -19 41q0 25 21 45l90 90h-129q-61 0 -62 61v74 q0 57 64 57h131l-62 56q-47 53 -47 86q0 23 17 39l51 51q18 18 41 18q25 0 45 -20l88 -88v125q0 61 59 61h76q57 0 57 -64v-129l95 95q20 20 43 20q16 0 43 -18q70 -70 69 -97q0 -23 -20 -43l-92 -92h131q61 0 61 -59v-76z" />
<glyph unicode="+" horiz-adv-x="1009" d="M938 786q0 -86 -92 -88h-219v-221q0 -90 -90 -90h-70q-86 0 -88 92v219h-217q-90 0 -90 90v70q0 84 92 88h215v217q0 90 92 90h68q84 0 90 -92v-215h219q90 0 90 -92v-68z" />
<glyph unicode="," horiz-adv-x="485" d="M395 217v-125q0 -12 -1 -33.5t-9 -75t-21.5 -93.5t-45 -73.5t-72.5 -33.5h-127q-12 2 -13 12v86q0 18 21 19h78q31 0 31 39v63h-54q-51 0 -71.5 22.5t-20.5 69.5v123q0 90 92 90h121q92 0 92 -90z" />
<glyph unicode="-" horiz-adv-x="925" d="M803 582q0 -88 -94 -88h-496q-90 0 -90 90v69q0 88 92 88h496q92 0 92 -92v-67z" />
<glyph unicode="." horiz-adv-x="528" d="M115 100v121q0 92 92 92h121q92 0 92 -92v-121q0 -92 -92 -92h-121q-51 0 -71.5 22.5t-20.5 69.5z" />
<glyph unicode="/" horiz-adv-x="618" d="M567 1546l-270 -1526q-14 -82 -96 -81h-70q-82 0 -82 77l2 23l271 1526q14 82 96 82h69q82 0 82 -78z" />
<glyph unicode="0" horiz-adv-x="1204" d="M1153 798.5q0 -354.5 -149 -577.5q-152 -231 -402 -231t-401 231q-150 223 -150 578q0 358 150 577q150 223 401 223q250 0 399 -223q152 -223 152 -577.5zM905 799q0 264 -102 432q-90 141 -201 141q-113 0 -199 -141q-102 -168 -102 -432q0 -295 102 -453 q84 -129 199 -129q119 0 201 129q102 158 102 453z" />
<glyph unicode="1" horiz-adv-x="952" d="M922 84q0 -86 -93 -86h-696q-90 0 -90 90v62q0 90 92 90h232v1022l-95 -66q-78 -47 -127 -47q-47 0 -71 41q-43 72 -43 106q0 43 45 70l147 90l113 72q88 51 137 61h55q88 0 88 -92v-1257h222q84 0 84 -90v-66z" />
<glyph unicode="2" horiz-adv-x="1093" d="M1010 160v-74q0 -88 -92 -88h-691q-145 0 -155 164v268q0 170 127 254l514 330q74 47 73 129q0 70 -41 129q-68 98 -180 98q-197 0 -286 -135q-23 -35 -56 -35q-31 4 -83 50t-54 81q0 25 18 51q152 219 461 220q244 0 373 -183q84 -145 84 -289q0 -213 -199 -337 l-487 -308q-29 -18 -29 -53v-182h613q90 0 90 -90z" />
<glyph unicode="3" horiz-adv-x="1019" d="M948 520q0 -227 -106 -370q-119 -162 -355 -162q-287 0 -411 174q-25 27 -25 53.5t31 58.5q6 6 24.5 27t27.5 30t24.5 19t29.5 10q31 0 56 -32q35 -53 116 -86q74 -27 123 -27h11q86 2 149 94q59 84 59 185q0 88 -49 141q-51 61 -155 61h-129q-92 0 -93 90v70q0 88 95 88 h135q88 0 133 82q39 66 39 172q0 70 -47 117q-55 55 -160 55q-131 0 -192 -72q-20 -31 -54 -30q-29 0 -55 32q-35 35 -51 54q-31 35 -31 59q0 29 27 55q129 133 364 134q215 0 330 -113q111 -111 111 -299q0 -225 -107 -356q135 -124 135 -314z" />
<glyph unicode="4" horiz-adv-x="1202" d="M1171 387q0 -84 -92 -90h-61v-207q0 -92 -88 -92h-80q-80 0 -80 92v211h-645q-94 0 -94 86v53q4 25 8 39q14 49 55 109l660 952q33 49 90 49h80q94 0 94 -98v-944h24q49 0 78 -8q51 -14 51 -82v-70zM772 1174l-403 -627h403v627z" />
<glyph unicode="5" horiz-adv-x="1148" d="M1077 483q0 -500 -557 -499q-270 0 -424 217q-18 29 -18 51q0 31 33 61l29 25l31 26q11 9 25.5 17t26.5 8q37 0 53 -35q102 -133 250 -133q137 0 203 37q106 57 111 227q0 57 -23 113q-51 104 -190 104h-289q-266 0 -266 291v504q0 90 90 90h776q94 0 94 -88v-69 q0 -92 -92 -93h-639v-352q0 -33 33 -33h295q285 0 395 -233q43 -95 53 -236z" />
<glyph unicode="6" horiz-adv-x="1189" d="M1118 496q0 -213 -123 -357q-135 -156 -368 -155q-252 0 -389 143q-145 152 -146 442v529q0 502 520 501q154 0 269 -65q80 -47 170 -145q23 -29 22.5 -57.5t-29.5 -57.5q-90 -78 -126 -78q-31 0 -50 31q-37 61 -118 100q-74 35 -134 35q-285 0 -284 -258v-160h313 q266 0 387 -158q86 -114 86 -290zM868 494q0 201 -235 200h-291v-196q0 -131 76 -205t200 -74q250 1 250 275z" />
<glyph unicode="7" horiz-adv-x="1052" d="M1001 1427v-270q0 -162 -124 -254l-467 -342q-37 -37 -37 -69v-404q0 -90 -90 -90h-72q-88 0 -88 92v402q0 156 158 272l454 336q31 23 31 55v182h-604q-90 0 -90 90v74q0 88 92 88h682q147 0 155 -162z" />
<glyph unicode="8" horiz-adv-x="1095" d="M1044 455q0 -184 -124 -318q-137 -150 -369 -149q-225 0 -373 164q-127 143 -127 303q0 242 158 381q-143 123 -143 299q0 205 129 331q129 129 348 129q233 0 359 -122.5t126 -337.5q0 -180 -143 -304q159 -138 159 -376zM778 1135q0 233 -227 233q-238 0 -238 -233 q0 -63 58 -121q70 -66 172 -66q235 1 235 187zM795 449q0 131 -72 206q-63 63 -172 64q-106 0 -174 -62q-76 -70 -76 -200q0 -92 66 -164q70 -76 176 -76q109 0 182 74q70 68 70 158z" />
<glyph unicode="9" horiz-adv-x="1189" d="M1098 487q0 -502 -520 -501q-156 0 -269 67q-86 49 -170 146q-25 27 -24 51q0 33 37 65q8 8 28.5 26.5l31.5 28t26.5 17.5t27.5 8q33 0 56 -37q39 -59 120 -100q74 -35 131 -35q285 0 285 258v129h-287q-266 0 -399 174q-100 131 -100 308q0 213 123 354q135 156 368 156 q252 0 389 -144q145 -152 146 -440v-531zM848 840v247q0 133 -80 209q-76 70 -197 70q-250 0 -249 -272q0 -102 59 -174q66 -80 182 -80h285z" />
<glyph unicode=":" horiz-adv-x="505" d="M109 90v123q0 92 92 92h121q92 0 92 -92v-123q0 -90 -92 -90h-121q-51 0 -71.5 21.5t-20.5 68.5zM109 903v123q0 90 92 90h121q92 0 92 -90v-123q0 -92 -92 -92h-121q-51 0 -71.5 22.5t-20.5 69.5z" />
<glyph unicode=";" horiz-adv-x="557" d="M125 901v123q0 90 90 90h123q92 0 92 -90v-123q0 -92 -92 -92h-123q-49 0 -69.5 22.5t-20.5 69.5zM422 90v123q0 92 -90 92h-123q-92 0 -92 -92v-121q0 -47 20.5 -69.5t71.5 -22.5h53v-63q0 -39 -31 -39h-77q-18 0 -19 -19v-86q0 -8 10 -12h127q119 0 146 239z" />
<glyph unicode="&#x3c;" horiz-adv-x="784" d="M696 1047l-305 -256l266 -297q27 -33 27 -66q0 -35 -31 -63l-51 -46q-29 -27 -63 -26q-33 0 -64 33l-381 426q-23 29 -22 55q0 37 37 72l430 360q27 25 59 25q39 0 70 -37q66 -78 65 -115q0 -34 -37 -65z" />
<glyph unicode="=" horiz-adv-x="968" d="M918 817q0 -88 -93 -88h-684q-90 0 -90 90v70q0 88 92 88h684q90 0 91 -92v-68zM918 481q0 -88 -93 -88h-684q-90 0 -90 90v70q0 88 92 88h684q90 0 91 -90v-70z" />
<glyph unicode="&#x3e;" horiz-adv-x="786" d="M692 752l-49 -60l-332 -366q-31 -33 -65 -33q-33 0 -62 26q-84 72 -84 115q0 33 27 60l268 297l-307 256q-37 35 -37 73q0 27 23 56l45 53q31 35 67 35q29 0 60 -25l432 -360q37 -31 37 -72q0 -26 -23 -55z" />
<glyph unicode="?" horiz-adv-x="1116" d="M1065 1100q0 -137 -49 -244q-102 -221 -379 -221h-49q-31 0 -31 -35v-217q0 -98 -90 -98h-70q-88 0 -88 94v209q0 297 238 297h92q106 0 152 104q27 59 26 117q0 135 -115 203q-84 51 -200 51q-70 0 -144 -33q-86 -37 -125 -94q-20 -45 -53 -45q-18 0 -39 20l-86 86 q-25 25 -24.5 43.5t24.5 48.5q80 96 195 152q125 63 260 64q197 0 336 -78q215 -121 219 -424zM557 133v-47q0 -90 -90 -90h-68q-86 0 -88 94l-2 53q0 84 92 84h68q86 0 88 -94z" />
<glyph unicode="@" horiz-adv-x="1146" d="M1075 244q0 -156 -125 -164q-45 0 -84 20q-76 37 -75 136v2q-115 -90 -218 -91q-135 0 -233 101q-123 121 -123 350q0 236 121 356q96 96 237 97q133 0 252 -103q18 -12 50 -47q45 -47 45 -90q0 -66 4 -610q0 -10 14 -10.5t14 22.5l-2 614q0 80 -133 170t-241 90 q-141 0 -250 -96q-147 -127 -148 -375q0 -276 142 -413q109 -109 243 -109q41 -10 60.5 -23.5t17.5 -27.5q-6 -33 -12 -39q-45 -29 -68 -29q-199 0 -346 162q-166 182 -166 479q0 301 174 461q143 131 353 131q172 0 335 -129q162 -125 162 -256v-579zM795 381v442 q-92 109 -217 109q-225 0 -226 -326q0 -340 234 -340q113 0 209 115z" />
<glyph unicode="A" horiz-adv-x="1337" d="M1303 80q2 -6 2 -23q0 -63 -84 -63h-68q-74 0 -104 80l-129 370h-504l-133 -370q-27 -76 -103 -76h-67q-82 0 -82 59q0 8 4 25l500 1431q27 76 102 76h68q76 0 102 -76zM842 674l-172 497l-174 -497h346z" />
<glyph unicode="B" horiz-adv-x="1130" d="M1059 1120q0 -197 -137 -309q135 -127 135 -326q0 -487 -492 -487h-311q-162 0 -162 147v1262q0 184 191 184h290q486 0 486 -471zM811 1137q0 119 -58.5 172t-181.5 53h-233v-428h219q254 0 254 203zM807 475q0 119 -76 176q-66 53 -176 54h-217v-480h217q252 0 252 250 z" />
<glyph unicode="C" horiz-adv-x="1140" d="M1073 1348l-69 -72q-31 -31 -60 -31q-27 0 -49 29q-74 104 -240 104q-125 0 -229 -131q-125 -156 -125 -420q0 -274 127 -456q109 -158 227 -158q78 0 148 39q92 53 133 158l135 -136q18 -18 19 -45q0 -31 -21 -63q-72 -86 -195 -137q-104 -45 -219 -45q-254 0 -430 237 q-174 236 -174 606q0 373 178 584q166 197 426 197q242 0 404 -162q31 -31 31 -62q-1 -20 -17 -36z" />
<glyph unicode="D" horiz-adv-x="1284" d="M1233 827q0 -367 -176 -598q-174 -229 -432 -229h-445q-88 0 -88 92v1407q0 88 92 88h445q262 0 426 -186q178 -203 178 -574zM983 827q0 264 -125 410q-102 125 -231 125h-287v-1137h289q119 0 227 152q127 176 127 450z" />
<glyph unicode="E" horiz-adv-x="1181" d="M1110 86q0 -86 -92 -86h-764q-162 0 -162 147v1258q0 115 86 160q47 25 105 24h737q90 0 90 -92v-67q0 -84 -92 -91h-680v-395h596q92 0 92 -92v-66q0 -84 -94 -90h-592v-452h680q90 0 90 -90v-68z" />
<glyph unicode="F" horiz-adv-x="1140" d="M1110 1430q0 -84 -92 -91h-680v-395h596q92 0 92 -92v-68q0 -84 -94 -90h-592v-606q0 -92 -80 -92h-80q-88 0 -88 92v1317q0 115 86 160q45 23 94 22h748q90 0 90 -92v-65z" />
<glyph unicode="G" horiz-adv-x="1214" d="M1143 621v-533q-2 -88 -90 -88h-70q-63 0 -80 41q-115 -57 -248 -57q-254 0 -430 237q-174 236 -174 606q0 373 178 584q166 197 426 197q242 0 404 -162q29 -29 28 -57q0 -35 -83 -113q-33 -31 -62 -31q-31 0 -47 29q-63 104 -240 104q-125 0 -229 -131 q-125 -156 -125 -420q0 -274 127 -456q109 -158 227 -158q61 0 127 25q78 29 111 75v324q0 60 -45 60q-4 0 -8 -1h-164q-90 0 -90 88v70q0 84 92 88h201q76 0 137 -37q127 -77 127 -284z" />
<glyph unicode="H" horiz-adv-x="1273" d="M1182 1495l-2 -1403q0 -92 -90 -92h-70q-86 0 -88 94v602h-590v-604q-2 -92 -92 -92h-70q-86 0 -88 94v1403q0 90 92 90h68q84 0 90 -92v-551h590v553q0 90 92 90h68q84 0 90 -92z" />
<glyph unicode="I" horiz-adv-x="518" d="M406 90q0 -90 -91 -90h-71q-86 0 -86 92v1213q0 49 -41 77q-45 33 -45 82q0 23 12 43l37 47q35 41 78 41q25 0 45 -14l6 -4q139 -94 156 -258v-1229z" />
<glyph unicode="J" horiz-adv-x="1112" d="M1081 1427q0 -84 -92 -90h-211v-934q0 -139 -137 -274q-162 -141 -344 -141q-127 0 -215 53q-51 31 -51 78q0 10 4 22l47 92q20 31 55 31q27 0 49 -14q57 -33 123 -33q70 0 140 45q78 47 83 113v962h-237q-90 0 -90 90v72q0 88 92 88h694q90 0 90 -90v-70z" />
<glyph unicode="K" horiz-adv-x="1214" d="M1163 119q20 -35 21 -66q0 -53 -72 -53h-86q-74 0 -113 63l-331 519q-12 23 -60 59q-63 51 -123 51h-59v-602q0 -90 -90 -90h-82q-76 0 -76 63v1434q0 92 92 92h68q84 0 90 -94v-553h53q63 0 129 59q39 33 56 66l243 455q37 68 115 67h86q72 0 72 -53q0 -33 -21 -68 l-297 -536q-20 -31 -90 -107q51 -41 90 -104z" />
<glyph unicode="L" horiz-adv-x="1159" d="M1114 158q-115 -156 -291 -156h-559q-172 0 -172 166v1331q0 90 92 90h68q84 0 90 -92v-1249h479q70 0 97 39q35 47 81 47q20 0 43 -12l48 -39q39 -33 38 -76q0 -26 -14 -49z" />
<glyph unicode="M" horiz-adv-x="1734" d="M866 254q-63 0 -86 37l-456 764v-965q0 -74 -70 -88q-6 -2 -21 -2h-63q-76 0 -86 68v1454q10 68 86 67h63q43 0 70 -26l563 -936l566 936q27 27 69 26h62q76 0 86 -67v-1454q-10 -68 -84 -68h-66q-90 0 -90 90v965l-457 -764q-25 -37 -86 -37z" />
<glyph unicode="N" horiz-adv-x="1368" d="M1276 1493v-1401q0 -92 -92 -92h-66q-49 0 -94 68l-684 1017v-993q0 -92 -90 -92h-70q-88 0 -88 94v1401q0 90 92 90h64q47 0 88 -49l692 -1028v987q0 90 92 90h68q86 0 88 -92z" />
<glyph unicode="O" horiz-adv-x="1312" d="M1262 827q0 -442 -177 -659q-156 -186 -430 -186t-428 186q-176 217 -176 659q0 395 180 596q158 182 424.5 182.5t425.5 -182.5q181 -201 181 -596zM1012 827q0 301 -125 445q-94 106 -232 106q-135 0 -229 -106q-125 -143 -125 -445q0 -344 127 -501q92 -115 227 -115 q137 0 230 115q127 157 127 501z" />
<glyph unicode="P" horiz-adv-x="1110" d="M1059 1036q0 -303 -164 -463q-133 -127 -317 -127h-240v-354q0 -92 -90 -92h-70q-86 0 -86 88v1317q0 115 86 160q45 20 90 20h299q193 0 326 -110q166 -144 166 -439zM809 1044q0 313 -252 314h-219v-684h219q252 -1 252 370z" />
<glyph unicode="Q" horiz-adv-x="1310" d="M1260 817q0 -317 -136 -547q-131 -221 -342 -278q18 -49 76 -81q46 -25 91 -25l24 1q5 0 9 1q70 0 87 -62l2 -82q2 -74 -63 -86q-31 -6 -64 -6q-117 0 -225 69q-98 59 -146 142q-18 41 -47 129q-211 59 -342 282q-133 225 -133 543q0 371 178 584q166 197 426 196.5 t426 -196.5q179 -213 179 -584zM1012 817q0 264 -125 420q-106 131 -231.5 131t-229.5 -131q-125 -156 -125 -420q0 -274 127 -457q109 -158 227.5 -157.5t229.5 157.5q127 183 127 457z" />
<glyph unicode="R" horiz-adv-x="1251" d="M1200 70q0 -70 -55 -70h-90q-47 0 -109 74l-241 375q-10 -2 -48 -3h-319v-364q0 -82 -90 -82h-70q-61 0 -80 33q-6 12 -6 51v1321q0 115 86 160q41 23 92 22h377q193 0 326 -127q164 -158 164 -452q0 -338 -203 -480q109 -154 248 -383q18 -34 18 -75zM889 1014 q0 203 -70 280q-57 63 -174 64h-307v-684h297q125 0 180 59q74 78 74 281z" />
<glyph unicode="S" horiz-adv-x="1126" d="M985 205q-166 -217 -448 -217h-37q-231 12 -394 186q-25 25 -24 55q0 27 33 60l26 25q20 19 30.5 27.5t27 18t30.5 9.5q29 -4 50 -31q96 -115 235 -121h18q76 0 132 25q82 33 120 106q37 53 37 115v8q0 78 -61 107l-465 217q-225 104 -225 333v25q6 106 61 225 q141 219 436 219q35 0 54 -2q231 -12 389 -182q25 -29 24 -49v-8q0 -29 -33 -60l-21 -21q-15 -15 -23.5 -21.5l-20.5 -16.5t-23.5 -14t-23.5 -4q-29 0 -51 28q-78 111 -232 121h-28q-193 0 -254 -121q-16 -35 -23 -94v-8q0 -88 59 -123l465 -217q231 -109 232 -334v-22 q-6 -115 -72 -244z" />
<glyph unicode="T" horiz-adv-x="1302" d="M1272 1427q0 -88 -92 -88h-406v-1058q0 -51 39 -78q47 -35 47 -82q0 -23 -12 -43l-55 -66q-23 -25 -54 -24q-25 0 -53 16q-160 94 -160 277v1058h-405q-90 0 -90 91v71q0 88 92 88h1059q90 0 90 -92v-70z" />
<glyph unicode="U" horiz-adv-x="1380" d="M1288 1497v-926q0 -299 -223 -460q-170 -125 -373 -125q-205 0 -375 125q-225 164 -225 460v926q0 92 88 92h64q92 0 92 -90v-911q0 -166 117 -275q106 -96 237 -96t238 96q117 109 116 275v911q0 90 93 90h63q86 0 88 -92z" />
<glyph unicode="V" horiz-adv-x="1325" d="M1288 1479l-493 -1405q-29 -74 -103 -74h-67q-78 0 -103 74l-485 1405q-6 18 -6 39q0 70 78 69h67q78 0 103 -74l380 -1097l388 1097q27 76 102 76h68q78 0 77 -71q0 -19 -6 -39z" />
<glyph unicode="W" horiz-adv-x="2201" d="M2165 1477l-494 -1403q-29 -74 -102 -74h-68q-82 0 -102 76l-299 1030l-303 -1030q-20 -76 -103 -76h-69q-78 0 -103 74l-485 1407q-6 23 -6 39q0 72 78 71h67q76 0 103 -75l376 -1088l324 1083q23 78 100 78h45q76 0 99 -80l317 -1083l383 1087q27 74 102 74h68 q78 0 78 -71q0 -16 -6 -39z" />
<glyph unicode="X" horiz-adv-x="1345" d="M1294 119q20 -39 21 -68q0 -53 -70 -53h-80q-72 0 -110 61l-381 562l-383 -560q-43 -63 -111 -63h-78q-72 0 -71 55q0 29 20 68l477 698l-446 647q-20 39 -21 68q0 53 70 53h80q66 0 111 -63l352 -506l346 508q43 63 113 63h77q70 0 70 -53q0 -31 -20 -70l-441 -647z" />
<glyph unicode="Y" horiz-adv-x="1374" d="M1337 1475l-532 -813v-574q0 -90 -90 -90h-70q-88 0 -88 92v582l-520 801q-6 23 -6 40q0 74 75 74h101q25 -4 33 -8q37 -14 61 -55l385 -590l389 592q37 57 92 63h101q76 0 75 -73q0 -21 -6 -41z" />
<glyph unicode="Z" horiz-adv-x="1290" d="M1239 1450q0 -16 -8 -39q-4 -8 -12 -20l-824 -1162h785q59 0 59 -59v-111q0 -59 -59 -59h-1039q-90 0 -90 90v51q0 31 19 58l821 1163h-778q-61 0 -62 59v111q0 59 62 59h1036q90 0 90 -92v-49z" />
<glyph unicode="[" horiz-adv-x="544" d="M494 1556v-69q0 -86 -93 -88h-61v-1546h74q80 0 80 -89v-71q0 -86 -95 -86h-217q-90 0 -90 90v1859q0 90 90 91h221q91 -1 91 -91z" />
<glyph unicode="\" horiz-adv-x="636" d="M606 -297l2 -22q0 -78 -82 -78h-69q-82 0 -97 82l-329 1861l-2 23q0 78 82 78h69q82 0 96 -82z" />
<glyph unicode="]" horiz-adv-x="544" d="M453 -303q0 -92 -91 -92h-217q-92 0 -92 88v71q0 88 84 89h68v1546h-78q-76 0 -76 88v69q0 90 90 91h221q90 0 91 -91v-1859z" />
<glyph unicode="^" horiz-adv-x="868" d="M811 1335q6 -20 6 -45q0 -72 -76 -71h-69q-20 4 -31 10q-33 14 -63 51l-140 195q-23 -37 -133 -191q-61 -66 -102 -65h-70q-82 0 -82 63q0 25 12 53q2 2 183 258q6 10 22 31q45 63 101 64h149q39 0 84 -64z" />
<glyph unicode="_" horiz-adv-x="1191" d="M1141 -160q0 -88 -94 -88h-906q-90 0 -90 90v72q0 86 92 86h906q92 0 92 -90v-70z" />
<glyph unicode="`" horiz-adv-x="409" d="M111 1292l-54 148q-6 23 -6 39q0 70 76 69h70q74 0 102 -73l53 -146q6 -23 6 -41q0 -70 -75 -69h-68q-75 -1 -104 73z" />
<glyph unicode="a" d="M1016 78q-4 -78 -88 -78h-66q-80 0 -90 59q-125 -78 -240 -77q-188 0 -319 137q-162 164 -162 469q0 311 164 475q131 131 326 131q176 0 340 -139q133 -111 133 -201zM772 328v522q-125 117 -219 117q-115 0 -182 -88q-72 -96 -72 -283q0 -387 254 -387q106 0 219 119z " />
<glyph unicode="b" horiz-adv-x="1107" d="M1057 592q0 -313 -164 -477q-133 -133 -326 -133q-178 0 -342 139q-133 111 -133 203v1157q0 94 88 94h64q92 0 92 -90v-365q125 78 239 78q184 0 320 -137q162 -164 162 -469zM807 584q0 385 -252 385q-109 0 -219 -117v-526q121 -115 219 -115q117 0 180 88 q72 101 72 285z" />
<glyph unicode="c" horiz-adv-x="919" d="M872 121q-104 -139 -331 -139q-238 0 -371 182q-119 164 -119 424t119 424q133 182 371 182q195 0 317 -127q29 -29 29 -57q0 -31 -72 -103l-10 -10q-27 -33 -55 -33q-33 0 -54 31q-57 70 -155 70q-109 0 -172 -88q-70 -96 -70 -289t70 -289q66 -90 172 -90 q111 0 204 141l123 -125q20 -20 21 -49q-1 -26 -17 -55z" />
<glyph unicode="d" horiz-adv-x="1107" d="M1016 1479l-2 -1160q0 -88 -133 -202q-158 -137 -340 -137q-193 0 -326 133q-164 164 -164 475q0 305 162 469q131 137 319 137q115 0 240 -76v363q0 90 90 90h64q84 0 90 -92zM772 322v526q-113 119 -219 119q-254 0 -254 -387q0 -182 67.5 -277.5t186.5 -95.5 q94 0 219 115z" />
<glyph unicode="e" horiz-adv-x="1081" d="M1030 588v-74q0 -82 -92 -88h-621q51 -217 224 -217q82 0 145 41q61 43 82 43h133q61 0 62 -41q0 -117 -160 -201q-131 -70 -262 -69q-238 0 -371 182q-119 164 -119 424t119 424q133 184 370.5 184t370.5 -184q119 -164 119 -424zM778 668q-35 299 -237 299 q-209 0 -236 -299h473z" />
<glyph unicode="f" horiz-adv-x="831" d="M934 1440l-25 -56q-29 -37 -71 -36q-29 0 -54 12q-53 29 -112 29q-70 0 -140 -46q-80 -49 -79 -112v-109h252q90 0 90 -92v-51q0 -88 -93 -88h-249v-801q0 -90 -91 -90h-69q-84 0 -90 92v799h-82q-90 0 -90 90v53q0 88 92 88h80v78q0 137 139 277q164 139 342 139 q135 0 217 -51q43 -29 43 -76q0 -22 -10 -49z" />
<glyph unicode="g" horiz-adv-x="1116" d="M1024 -2q0 -137 -137 -274q-164 -139 -344 -140q-127 0 -211 47q-49 29 -49 80q0 23 10 47l24 56q27 39 72 39q27 0 53 -15q51 -27 113 -26q68 0 143 47q76 45 76 110v80q-104 -61 -233 -61q-238 0 -371 184q-119 162 -119 422t119 422q133 182 371 182q135 0 237 -63 q14 63 88 63h68q90 0 90 -94v-1106zM776 678v10q0 135 -69 211q-63 70 -166 70q-109 0 -172 -88q-70 -94 -70 -287t70 -289q63 -88 172 -88q102 0 161 68q74 80 74 227v166z" />
<glyph unicode="h" horiz-adv-x="1128" d="M1057 623l-2 -533q0 -90 -90 -90h-70q-88 0 -88 92v531q0 375 -252 374q-106 0 -219 -118v-787q0 -92 -90 -92h-66q-86 0 -86 94v1401q0 92 88 92h64q90 0 90 -90v-348q125 76 239 76q184 0 320 -135q162 -162 162 -467z" />
<glyph unicode="i" horiz-adv-x="434" d="M342 1415l-2 -49q-4 -90 -90 -90h-70q-86 0 -88 94v47q0 90 92 90h68q84 0 90 -92zM342 1083v-991q0 -90 -90 -90h-70q-88 0 -88 92v991q0 92 92 93h68q86 -1 88 -95z" />
<glyph unicode="j" horiz-adv-x="475" d="M383 1395l-2 -47q-4 -90 -90 -91h-70q-86 0 -88 93v47q0 90 92 90h68q88 0 90 -92zM383 -14q0 -137 -137 -275q-170 -139 -344 -139q-135 0 -217 51q-43 29 -43 76q0 23 10 49l24 53q27 39 74 39q27 0 51 -12q53 -29 113 -29q70 0 139 45q82 51 82 113v1130q0 90 92 91 h70q86 0 86 -95v-1097z" />
<glyph unicode="k" horiz-adv-x="1107" d="M1057 119q20 -35 20 -68q0 -53 -71 -53h-86q-84 0 -201 186l-137 242q-14 27 -60 61q-63 51 -123 52h-59v-451q0 -90 -90 -90h-70q-88 0 -88 92v1409q0 90 92 90h68q84 0 90 -92v-711h53q68 0 131 62q39 37 54 65l125 226q37 66 114 65h86q72 0 72 -53q0 -31 -21 -66 l-178 -309q-29 -51 -90 -104q53 -47 90 -107z" />
<glyph unicode="l" horiz-adv-x="456" d="M414 78l-37 -47q-35 -41 -78 -41q-25 0 -45 14q-162 100 -162 293v1198q0 94 88 94h70q90 0 90 -92v-1216q0 -51 39 -78q47 -35 47 -82q0 -23 -12 -43z" />
<glyph unicode="m" horiz-adv-x="1824" d="M1753 96q-2 -94 -88 -94h-66q-90 0 -90 92v506q0 377 -254 377q-100 0 -219 -117v-766q0 -92 -88 -92h-69q-90 0 -91 90v602q-35 281 -249 281q-98 0 -217 -115v-766q-6 -92 -91 -92h-69q-88 0 -88 90v756q0 88 137 217q164 137 340 137q221 0 346 -162q4 4 16 15l11 10 q139 139 344 139q190 0 323 -127q162 -156 162 -454v-527z" />
<glyph unicode="n" horiz-adv-x="1130" d="M1059 90q0 -92 -90 -92h-70q-84 0 -90 94v492q0 377 -252 377q-109 0 -221 -119v-752q0 -90 -90 -90h-66q-86 0 -86 92v993q0 92 88 93h64q76 0 88 -68q127 78 244 78q184 0 319 -135q162 -164 162 -469v-494z" />
<glyph unicode="o" horiz-adv-x="1083" d="M1026 590q0 -262 -119 -426q-133 -184 -370.5 -184t-370.5 184q-121 168 -121 426q0 256 121 424q133 184 370.5 184t370.5 -184q119 -164 119 -424zM778 590q0 193 -69 289q-66 90 -172.5 90t-171.5 -90q-70 -96 -70 -289q0 -195 70 -291q66 -90 172 -90t172 90 q69 96 69 291z" />
<glyph unicode="p" d="M1036 586q0 -305 -162 -469q-135 -137 -319 -137q-121 0 -240 75v-362q0 -90 -92 -90h-63q-88 0 -88 92v1159q0 88 133 203q164 137 342 137q193 0 325 -133q164 -164 164 -475zM786 594q0 186 -71 283q-68 90 -180 90q-98 0 -220 -115v-526q113 -119 220 -119 q251 0 251 387z" />
<glyph unicode="q" d="M1016 -305q-6 -92 -90 -92h-64q-90 0 -90 90v362q-119 -76 -240 -75q-188 0 -319 137q-162 164 -162 469q0 311 164 475q133 133 326 133q176 0 340 -137q135 -117 135 -203v-1159zM772 326v526q-125 115 -219 115q-115 0 -182 -90q-72 -96 -72 -283q0 -387 254 -387 q106 0 219 119z" />
<glyph unicode="r" horiz-adv-x="841" d="M803 1016l-27 -55q-27 -39 -71 -39q-27 0 -54 14q-47 27 -110 27q-86 0 -183 -80q-39 -31 -39 -80v-713q0 -90 -90 -90h-69q-88 0 -88 92v692q0 109 61 191q35 49 80 78q156 137 340 137q127 0 211 -47q47 -29 47 -82q0 -27 -8 -45z" />
<glyph unicode="s" horiz-adv-x="923" d="M834 207q-125 -227 -400 -227q-229 0 -332 139q-16 29 -16 55q0 29 20 49l123 125q94 -141 205 -141q121 0 172 63q10 25 10 41q0 35 -28 58l-383 239q-121 74 -121 244q0 76 20 139q113 209 359 209q231 0 344 -149q16 -29 16 -56q0 -29 -18 -47q-18 -14 -117 -123 q-102 147 -223 148q-55 0 -82 -12q-35 -16 -61 -58q-12 -18 -13 -39q0 -41 41 -63q45 -29 291 -170q211 -123 211 -316q0 -59 -18 -108z" />
<glyph unicode="t" horiz-adv-x="862" d="M821 166q10 -25 10 -47q0 -47 -40 -76q-82 -53 -220 -53q-109 0 -196 51q-172 102 -172 365v540h-80q-92 0 -92 88v53q0 90 90 91h82v317q6 92 90 92h67q92 0 93 -90v-319h249q92 0 93 -88v-54q0 -90 -90 -90h-252v-565q0 -158 104 -158q72 0 113 23q25 12 53 12 q43 0 72 -37z" />
<glyph unicode="u" horiz-adv-x="1107" d="M74 559l-2 526q6 92 90 93h63q92 0 92 -91v-512q0 -371 252 -370q98 0 219 117v763q0 92 89 93h67q92 0 92 -91v-755q0 -98 -137 -215q-164 -139 -342 -140q-186 0 -319 127q-164 158 -164 455z" />
<glyph unicode="v" horiz-adv-x="1048" d="M1014 1069l-352 -995q-27 -74 -103 -74h-70q-72 0 -100 74l-352 995q-6 20 -6 39q0 72 78 72h67q76 0 103 -76l245 -686l246 686q27 76 102 76h70q78 0 78 -72q0 -21 -6 -39z" />
<glyph unicode="w" horiz-adv-x="1667" d="M1630 1069l-352 -995q-29 -74 -102 -74h-68q-84 0 -104 76l-177 618l-165 -616q-23 -78 -103 -78h-70q-72 0 -100 74l-352 995q-6 20 -6 39q0 72 78 72h67q76 0 103 -76l239 -668l184 666q23 78 103 78h39q80 0 102 -78l201 -672l242 674q27 76 102 76h68q78 0 77 -72 q0 -19 -6 -39z" />
<glyph unicode="x" horiz-adv-x="1097" d="M1047 94q23 -35 22 -57q0 -35 -49 -35h-109q-88 0 -149 90l-213 318l-211 -318q-59 -90 -152 -90h-106q-49 0 -49 35q0 23 22 57l353 529l-310 460q-23 35 -22 60q0 35 49 35h106q90 0 152 -93l168 -249l168 249q61 92 153 93h105q49 0 49 -35q0 -25 -23 -60l-309 -460z " />
<glyph unicode="y" horiz-adv-x="1128" d="M1034 74q0 -176 -137 -295q-164 -141 -342 -141q-129 0 -217 53q-43 27 -43 76q0 23 10 47l25 55q27 39 71 39q27 0 54 -14q45 -27 112 -27q72 0 138 43q72 45 81 115q-109 -57 -231 -58q-188 0 -322 127q-162 156 -161 455v536q2 92 88 93h63q92 0 92 -91v-516 q0 -190 74 -286q63 -88 180 -88q154 0 219 114l-2 238v536q2 94 88 95h70q90 0 90 -93v-1013z" />
<glyph unicode="z" horiz-adv-x="997" d="M946 1036q0 -16 -8 -39q-4 -8 -12 -20l-531 -748h492q59 0 59 -59v-111q0 -59 -59 -59h-746q-90 0 -90 90v51q0 31 19 58l528 749h-485q-61 0 -62 60v110q0 59 62 60h743q90 0 90 -93v-49z" />
<glyph unicode="{" horiz-adv-x="751" d="M752 1589q-18 -227 -111 -227h-41q-98 0 -139 -109q-4 -14 -25 -465q-6 -160 -88 -159q-12 0 -12 -13q0 -8 10 -8q27 -6 43 -20q43 -37 43 -121q4 -395 31 -498q37 -131 139 -141q8 0 14 2h29q76 0 105 -225h-146q-227 0 -328 205q-41 80 -64.5 270t-27.5 383 q-4 123 -114 123q-37 0 -39 30q4 35 43 35q94 0 114 125q10 195 37 402.5t66 265.5q98 145 309 145h152z" />
<glyph unicode="|" horiz-adv-x="475" d="M362 1554l-2 -1861q0 -90 -90 -90h-69q-88 0 -88 92v1861q0 90 92 91h67q84 -1 90 -93z" />
<glyph unicode="}" horiz-adv-x="790" d="M0 1587h152q211 0 309 -145q39 -57 65.5 -265t36.5 -403q20 -125 115 -125q39 0 43 -35q-4 -31 -39 -30q-113 0 -115 -123q-4 -193 -27.5 -383.5t-64.5 -270.5q-100 -205 -328 -204h-143q29 225 105 225h16q6 -2 25 -2q102 10 139 141q27 102 30 498q0 84 43 121 q16 14 44 20q10 0 10 8q0 12 -13 13q-82 0 -88 159q-20 451 -24 465q-41 109 -139 109h-41q-93 0 -111 227z" />
<glyph unicode="~" horiz-adv-x="745" d="M483 485q-63 0 -116.5 35t-77.5 96q-4 10 -15 15q-8 4 -12 4q-2 0 -10 -4q-20 -6 -21 -25l2 -8q2 -8 3 -23q0 -31 -18.5 -55t-47.5 -33q-8 -2 -25 -2q-70 0 -86 66q-6 27 -6 53q0 63 35 116.5t96 78.5q39 16 78 16t82 -16q82 -35 113 -115q6 -16 14 -16q4 -2 16 -2 q25 8 25 30q-2 14 -2 29q0 29 18.5 53.5t46.5 32.5q8 2 23 2q29 0 53.5 -18.5t32.5 -46.5q8 -25 8 -56q0 -63 -35.5 -115.5t-95.5 -76.5q-37 -15 -78 -15z" />
<glyph unicode="&#xa1;" horiz-adv-x="507" d="M377 1495v-49q0 -90 -92 -90h-68q-86 0 -88 94v47q0 90 90 90h70q84 0 88 -92zM395 90q0 -92 -90 -92h-104q-86 0 -88 94l26 1118q4 90 90 90h54q86 0 88 -92z" />
<glyph unicode="&#xa2;" horiz-adv-x="940" d="M872 121q-86 -115 -247 -135v-62q0 -92 -90 -92h-41q-88 0 -88 94v74q-172 45 -269 215q-86 158 -86 373t86 373q96 170 269 215v65q0 90 92 90h39q86 0 88 -92v-51q137 -25 233 -121q29 -29 29 -57q0 -31 -72 -103l-10 -10q-27 -33 -55 -33q-23 0 -61 36t-64 48v-719 q53 25 120 121l123 -125q20 -20 21 -49q-1 -26 -17 -55zM406 915q-106 -92 -106.5 -327.5t106.5 -329.5v657z" />
<glyph unicode="&#xa3;" horiz-adv-x="1253" d="M1165 1436l-35 -56q-31 -35 -71 -34q-27 0 -55 16q-41 27 -103 27q-74 0 -156 -48q-90 -53 -102 -120l-49 -277h242q90 0 90 -57q0 -12 -2 -19q-6 -45 -21 -94q-23 -61 -90 -61h-260l-82 -465h576q86 0 86 -74q0 -16 -3 -24q-4 -23 -18 -87q-25 -63 -92 -63h-905 q-86 0 -86 74q0 16 2 24t6 22.5l10 38t12 44.5q8 45 82 45h80l82 465h-74q-84 0 -84 53q0 8 5 29q2 16 22 102q20 43 82 49h92q53 283 57 293q47 143 170 240q174 137 363 137q133 0 211 -53q35 -25 35 -66q-1 -28 -17 -61z" />
<glyph unicode="&#xa5;" horiz-adv-x="1374" d="M1337 1477l-530 -832h104q90 0 90 -90v-70q0 -88 -92 -88h-104v-47h106q90 0 90 -90v-70q0 -88 -92 -88h-104v-14q0 -90 -90 -90h-70q-84 0 -88 92v12h-106q-92 0 -93 91v69q0 84 95 90h104v45h-106q-92 0 -93 90v70q0 88 95 88h104v27l-520 807q-6 20 -6 41q0 74 75 73 h101q25 -4 33 -8q37 -16 61 -55l385 -596l389 594q37 57 92 63h107q70 0 69 -71q0 -20 -6 -43z" />
<glyph unicode="&#xa6;" horiz-adv-x="3483" d="M3402 483q-61 -340 -297 -452q-102 -49 -191 -47q-156 2 -258 114q-25 8 -65 86q-23 43 -15 80l166 946q-6 18 31 58q20 18 55 18h51q33 4 51.5 -18.5t12.5 -55.5l-53 -297q106 59 207 64q213 4 292 -207q25 -63 25 -151q0 -64 -12 -138zM3197 477q23 121 6 193 q-29 125 -158 121q-88 0 -194 -95l-76 -432q84 -92 162 -92q205 0 260 305zM961 1208q-8 43 -17 52q-57 113 -217 94t-254 -131q-2 -27 -53 -33q-25 -4 -94 65q-25 25 -27 50q-4 29 29 65q158 182 397 211q317 37 436 -174q16 -12 29 -109q10 -86 10 -116q-2 -246 -264 -398 l-535 -303q-33 -18 -39 -53l-30 -180h604q76 0 78 -62q0 -23 -2 -28l-15 -74q-16 -76 -82 -84q-23 -4 -24 -2h-682q-66 0 -98.5 30.5t-30.5 90.5q0 39 2 41l47 266q31 168 170 252l567 326q126 73 95 204zM1733 223q-2 2 -11 15l-266 628l-141 -794q-8 -55 -62 -72 q-8 -2 -24 -2h-53q-66 0 -62 55l2 21l209 1179q18 55 82 56h51q43 0 55 -23l328 -772l602 772q23 23 62 23h51q66 0 61 -56v-20l-211 -1180q-14 -55 -79 -55h-54q-78 0 -61 74l139 794l-487 -628q-25 -31 -76 -31q-35 0 -55 16z" />
<glyph unicode="&#xa7;" horiz-adv-x="770" d="M702 209q-111 -199 -346 -199q-197 0 -288 121q-16 29 -17 53q0 29 21 47l110 111q88 -123 174 -123q96 0 140 51q8 14 8 31q0 27 -21 41l-327 205q-104 63 -105 211q0 66 19 123q57 104 133 143l-47 29q-104 66 -105 211q0 63 19 125q25 82 114.5 132t196.5 50 q195 0 299 -129q14 -27 14 -53q0 -29 -16 -46l-107 -110q-92 129 -188 129q-78 0 -115 -55q-10 -16 -10 -29q0 -29 31 -49l250 -146q180 -104 180 -270q0 -51 -17 -96q-61 -109 -143 -154q160 -100 160 -260q-1 -49 -17 -94zM506 809q-53 45 -123 45q-80 0 -115 -55 q-10 -16 -10 -29q0 -10 2 -14q41 -29 96 -29q33 0 87.5 14.5t54.5 38.5q8 19 8 29z" />
<glyph unicode="&#xa8;" horiz-adv-x="634" d="M584 1563v-47q0 -90 -90 -91h-70q-86 0 -88 95v47q0 90 92 90h68q86 0 88 -94zM301 1563l-2 -47q-4 -90 -90 -91h-70q-86 0 -88 95v47q0 90 92 90h68q84 0 90 -94z" />
<glyph unicode="&#xa9;" horiz-adv-x="1058" d="M1008 590q0 -266 -117 -428q-127 -176 -350 -176q-213 0 -351 174q-139 176 -139 430q0 252 137 426q139 176 353 176q227 0 354 -176q113 -162 113 -426zM885 590q0 477 -334 477q-150 0 -250 -113q-123 -131 -123 -364q0 -231 121 -363q102 -109 248 -108 q147 0 237 108q101 121 101 363zM766 319q8 -12 8 -16q0 -6 -8 -22q-66 -86 -211 -86q-150 0 -233 116q-78 109 -78 277t78 276q84 117 233 117q123 0 203 -80q10 -10 10 -20q0 -12 -28.5 -41t-43.5 -29q-6 0 -12 6q-51 57 -129 57q-88 0 -139 -74.5t-51 -211.5t51 -212 t139 -75q90 0 145 82z" />
<glyph unicode="&#xaa;" horiz-adv-x="778" d="M727 883q-4 -53 -61 -54h-48q-57 0 -61 41q-86 -55 -170 -55q-127 0 -223 96q-113 113 -113 328q0 217 115 332q92 92 227 92q125 0 240 -96q94 -78 94 -142v-542zM555 1057v366q-86 80 -154 80q-176 0 -176 -258q0 -270 176 -270q72 0 154 82z" />
<glyph unicode="&#xab;" horiz-adv-x="1253" d="M1167 1047l-307 -256l266 -297q29 -35 29 -70q0 -31 -31 -59l-53 -46q-33 -27 -63 -26q-33 0 -64 33l-381 426q-20 27 -20 53q0 39 37 74l430 360q27 25 59 25q37 0 68 -37q66 -82 65.5 -116.5t-35.5 -63.5zM676 1047l-305 -256l266 -297q27 -33 27 -66q0 -35 -31 -63 l-51 -46q-29 -27 -64 -26q-33 0 -63 33l-381 426q-23 29 -23 55q0 37 37 72l430 360q27 25 60 25q39 0 69 -37q66 -78 66 -115q0 -34 -37 -65z" />
<glyph unicode="&#xac;" horiz-adv-x="3674" d="M3576 487q-61 -342 -299 -456q-104 -49 -193 -47q-158 4 -262 114q-27 14 -65 88q-20 39 -15 80l168 955q-6 20 31 57q20 20 55 20h53q31 4 49.5 -18.5t14.5 -54.5l-55 -301q109 63 209 63q217 2 297 -209q25 -66 24 -153q0 -64 -12 -138zM1268 1491l-166 -944 q57 4 100 -8q41 -10 41 -60q0 -14 -2 -22l-12 -70q-14 -74 -84 -88q-14 -2 -25 -2h-63l-37 -207q8 -25 -35 -67q-25 -25 -67 -25h-66q-47 -8 -68.5 19.5t-11.5 72.5l39 211h-645q-27 -14 -68 23q-20 20 -12 63l10 53q-12 2 23 60q25 41 65 88l830 952q47 53 98 49h80 q43 6 62.5 -23.5t13.5 -74.5zM3369 481q23 123 6 195q-29 127 -158 123q-90 -4 -198 -97l-76 -434q82 -94 164 -94q207 0 262 307zM965 1174l-160 -195l-352 -432h403zM1892 225l-4 4q-4 6 -8 11l-268 634l-142 -802q-8 -57 -61 -70q-20 -4 -27 -4h-53q-63 0 -61 55l2 21 l211 1190q18 57 82 57h53q41 0 53 -23l332 -780l608 780q23 23 62 23h51q33 0 48 -14.5t13 -42.5v-19l-213 -1192q-14 -55 -80 -55h-53q-76 0 -63 74l143 802l-494 -634q-25 -31 -75 -31q-40 0 -56 16z" />
<glyph unicode="&#xad;" horiz-adv-x="968" d="M918 786q0 -88 -93 -88h-684q-90 0 -90 90v70q0 88 92 88h684q90 0 91 -92v-68z" />
<glyph unicode="&#x2212;" horiz-adv-x="968" d="M918 786q0 -88 -93 -88h-684q-90 0 -90 90v70q0 88 92 88h684q90 0 91 -92v-68z" />
<glyph unicode="&#xae;" horiz-adv-x="1058" d="M1008 590q0 -266 -117 -428q-127 -176 -350 -176q-213 0 -351 174q-139 176 -139 430q0 252 137 426q139 176 353 176q227 0 354 -176q113 -162 113 -426zM885 590q0 477 -334 477q-150 0 -250 -113q-123 -131 -123 -364q0 -231 121 -363q102 -109 248 -108 q147 0 237 108q101 121 101 363zM793 717q0 -160 -91 -219l74 -226q2 -4 2 -14q0 -12 -12 -22h-70q-20 0 -34 26l-68 213q-6 -2 -27 -2h-166v-205q0 -23 -28 -32h-45q-23 0 -29 30v641q0 63 70 64h229q74 0 129 -62q66 -71 66 -192zM694 719q0 66 -30.5 107.5t-75.5 41.5 h-180q-6 0 -7 -6v-282h187q106 0 106 139z" />
<glyph unicode="&#xaf;" horiz-adv-x="796" d="M772 1470q0 -88 -94 -88h-561q-92 0 -92 91v69q0 88 94 88h561q92 0 92 -92v-68z" />
<glyph unicode="&#x2c9;" horiz-adv-x="796" d="M772 1470q0 -88 -94 -88h-561q-92 0 -92 91v69q0 88 94 88h561q92 0 92 -92v-68z" />
<glyph unicode="&#xb0;" horiz-adv-x="698" d="M647 1315q0 -152 -72 -252q-80 -113 -225 -113t-227 113q-72 100 -72 252t74 252q80 111 225.5 110.5t224.5 -110.5q72 -102 72 -252zM463 1315q0 190 -113 190q-115 0 -114 -190q0 -193 114 -193q113 0 113 193z" />
<glyph unicode="&#xb1;" horiz-adv-x="3481" d="M3387 487q-61 -342 -297 -454q-104 -49 -192 -47q-156 2 -258 114q-25 8 -66 88q-23 43 -14 78l168 948q-8 20 31 58q18 20 55 20h51q31 4 49.5 -18.5t12.5 -54.5l-54 -299q109 63 209 63q213 4 293 -207q25 -63 25 -151q-1 -64 -13 -138zM313 1665l-10 -61q-4 -6 -8 -7 h-6q-2 0 -2 2l-4 3q-8 -6 -21 -7q-39 0 -29 47q8 49 48 50q12 0 23 -10.5t9 -16.5zM453 1726l-13 -22q-6 -6 -10 -6h-4q-6 0 -4 8l12 23q6 6 8 6h7q6 -1 4 -9zM1108 969q-51 -78 -135 -144q135 -137 94 -372q-43 -256 -289 -394q-127 -72 -282 -71q-137 0 -244 69.5 t-150 192.5q-39 106 -20 203q39 238 223 376q-123 127 -92 297q39 211 190 334q150 125 365 125q188 0 295 -82q119 -92 119 -270q0 -147 -74 -264zM924 1126q6 41 6 72q0 160 -193 160q-233 0 -276 -232q-16 -90 76 -151q45 -33 118 -33q238 0 269 184zM465 1642v-4 q-6 -8 -8 -8h-51q4 -16 16 -16q4 0 12 4l6 2h11q8 0 4 -6q-8 -18 -37 -19q-41 0 -31 47q10 49 47 50q41 -1 31 -50zM3183 479q23 123 6 195q-29 125 -158 121q-90 0 -197 -95l-75 -432q82 -94 163 -94q206 0 261 305zM287 1622l6 43q-8 8 -14 8q-20 0 -27 -28q-2 -31 16 -31 q11 0 19 8zM410 1651h36q4 23 -14 22q-16 1 -22 -22zM819 446q6 37 6 70q0 94 -53 146.5t-147 52.5q-127 0 -213 -88q-86 -90 -86 -213q0 -86 57 -142.5t143 -56.5q111 0 195 72q82 69 98 159zM1714 225q-2 2 -10 15l-266 632l-142 -798q-8 -57 -61 -70q-20 -4 -27 -4h-53 q-33 0 -47 13.5t-12 41.5v21l211 1184q18 55 82 55h51q41 0 53 -23l330 -774l604 774q23 23 61 23h52q66 0 61 -55v-21l-211 -1184q-14 -55 -80 -55h-55q-74 0 -62 74l142 798l-490 -632q-25 -31 -76 -31q-35 0 -55 16zM360 1690h21q8 0 4 -7v-4q-2 -8 -8 -8h-21l-8 -45 q-4 -12 6 -12q8 0 11 2q6 2 8 -2l2 -4q2 -6 -4 -10.5t-19 -4.5q-29 4 -22 33l6 43h-6q-6 0 -6 8l2 4q2 6 8 7h6l4 26q4 6 8 6h6q10 0 7 -6z" />
<glyph unicode="&#xb2;" horiz-adv-x="4587" d="M4489 485q-61 -342 -299 -456q-104 -49 -192 -47q-158 4 -260 114q-29 12 -68 88q-20 41 -14 80l168 957q-6 20 32 57q18 20 56 20h51q31 4 50.5 -19.5t12.5 -53.5l-55 -301q113 63 211 63q215 2 297 -209q25 -66 25 -153q-1 -68 -15 -140zM358 1659l-10 -62q-4 -6 -8 -6 h-6l-2 2q-4 0 -4 2q-8 -6 -21 -6q-41 0 -30.5 49.5t49.5 49.5q12 0 23 -10.5t9 -18.5zM500 1722l-15 -24l-8 -4h-6q-6 0 -4 8l12 22q6 6 10 7h5q8 -1 6 -9zM2171 1382q14 -20 14 -43q0 -39 -39 -69q-102 -78 -141 -78q-31 0 -43 31q-27 61 -100 100q-63 33 -127 33 q-279 0 -326 -256l-29 -158h310q401 0 401 -344q0 -55 -8 -102q-39 -211 -185 -353q-162 -156 -393 -155q-213 0 -328.5 107.5t-115.5 314.5q0 80 14 159l94 525q88 500 605 499q152 0 254 -65q71 -48 143 -146zM512 1638v-6q-6 -6 -10 -6h-49q0 -18 14 -18q6 0 16 6l4 2h11 q6 0 4 -6q-8 -20 -37 -21q-39 0 -31 49t47 50q39 -1 31 -50zM4282 479q23 127 7 197q-29 123 -158 123q-88 -2 -199 -99l-76 -434q82 -94 164 -94q207 0 262 307zM332 1618l8 41q-10 10 -16 10q-20 0 -27 -31q-2 -31 14 -30q11 0 21 10zM455 1645h39q2 25 -17 24 q-16 1 -22 -24zM1835 494q4 37 4 49q0 152 -205 151h-288l-35 -196q-6 -35 -6 -64q0 -100 63.5 -156.5t167.5 -56.5q248 1 299 273zM2804 223q-2 2 -11 15l-270 636l-141 -804q-8 -57 -62 -70q-20 -4 -26 -4h-53q-33 0 -48.5 14.5t-13.5 42.5l2 19l211 1192q18 57 82 57h53 q41 0 53 -23l334 -780l607 780q23 23 63 23h51q33 0 48.5 -14.5t13.5 -42.5v-19l-213 -1192q-14 -57 -80 -57h-56q-74 0 -61 74l141 804l-493 -636q-23 -31 -76 -31q-35 0 -55 16zM768 1583h53q86 0 74 -92l-223 -1249h223q70 0 70 -66q0 -8 -4 -24l-11 -64q-12 -55 -61 -78 q-16 -6 -47 -10l-690 2q-90 0 -74 90l10 60q8 57 59 79q25 10 50 11h229l178 1015q-35 -23 -104 -63q-82 -49 -135 -49q-45 0 -62 41q-27 61 -27 90q0 53 60 84l162 90q82 49 125 72q98 51 145 61zM432 1679l-2 -4q0 -8 -8 -8h-21l-6 -45q-2 -12 6 -12q6 0 9 2q6 2 10 -2v-4 q2 -8 -4 -11.5t-19 -3.5q-29 4 -22 33l8 43h-8q-6 0 -6 8l2 4q2 6 8 7h6l4 26q4 6 10 6h4q10 0 7 -6l-4 -26h20q8 -1 6 -7z" />
<glyph unicode="&#xb3;" horiz-adv-x="4648" d="M4557 494q-61 -346 -301 -461q-102 -49 -195 -47q-160 4 -262 114q-27 12 -65 88q-23 45 -17 82l172 963q-8 18 31 57q20 20 55 21h53q31 4 49.5 -19.5t14.5 -56.5l-55 -303q111 61 211 65q215 2 299 -211q25 -66 24 -153q0 -69 -14 -139zM399 1698l-12 -64q0 -6 -8 -6 h-4l-4 4q-2 2 -4 2q-8 -8 -21 -8q-39 0 -28.5 49t47.5 49q12 0 23 -10t11 -16zM539 1759l-13 -22q-6 -6 -8 -6h-6q-6 0 -4 8l12 22q6 6 10 6h5q6 0 4 -8zM553 1675v-6q-6 -6 -10 -6h-49q0 -18 14 -18q4 0 12 4l8 4h11q6 0 4 -6q-8 -20 -37 -21q-43 0 -33 49t49 49t31 -49z M4350 485q20 125 6 197q-31 125 -160 125q-88 -2 -198 -98l-78 -439q82 -94 166 -94q209 0 264 309zM371 1655l8 43q-8 8 -17 8q-20 0 -24 -29q-6 -33 14 -32q9 0 19 10zM496 1683l39 -2q2 25 -17 25q-16 0 -22 -23zM317 1389q190 219 500 219q244 0 340 -183 q41 -98 41 -204q0 -272 -266 -422l-541 -307q-33 -18 -39 -54l-30 -182h610q94 0 76 -90l-15 -74q-10 -55 -59 -78q-14 -6 -49 -10h-688q-129 0 -129 131q0 23 2 33l47 268q31 170 172 254l571 330q100 57 101 164q0 51 -21 94q-49 98 -164 98q-199 0 -311 -135 q-27 -33 -57 -33q-33 2 -74 44t-45 75q-1 27 28 62zM1464 1597l777 -4q94 -4 77 -88l-12 -69q-16 -90 -106 -90l-639 -3l-64 -352q-6 -33 27 -33h295q215 0 307 -137q66 -96 65 -239q0 -53 -8 -93q-88 -500 -643 -499q-268 0 -385 217q-12 23 -12 41q0 35 41 69l35 27 l37 26.5t29.5 16.5t29.5 8q29 0 47 -35q78 -133 225 -133q137 0 209 37q119 61 150 228q4 37 4 51q0 166 -178 166h-287q-223 0 -223 209q0 43 8 81l88 504q14 94 106 94zM2861 229q-6 6 -12 15l-271 639l-143 -809q-8 -55 -61 -72q-20 -4 -27 -4h-55q-33 0 -47.5 14.5 t-12.5 42.5v21l215 1200q18 57 82 57h54q41 0 53 -22l336 -787l610 787q23 23 63 22h54q33 0 48 -14t13 -43v-21l-215 -1200q-14 -57 -82 -57h-53q-76 0 -64 76l144 809l-496 -639q-25 -33 -78 -33q-41 0 -55 18zM446 1724h21q6 -4 6 -8l-2 -4q-2 -8 -8 -8h-21l-8 -45 q-4 -12 6 -12q8 0 11 2q6 2 10 -2v-5q2 -6 -4 -10t-19 -4q-27 2 -24 33l8 43h-6q-8 2 -6 8v4q2 8 10 8h6l4 25q2 8 8 8h6q8 -2 7 -8z" />
<glyph unicode="&#xb4;" horiz-adv-x="409" d="M352 1440l-53 -148q-29 -74 -104 -73h-68q-76 0 -76 69q0 18 6 41l54 146q29 74 102 73h70q76 0 75 -69q0 -16 -6 -39z" />
<glyph unicode="&#xb5;" horiz-adv-x="2199" d="M2136 664q0 -272 -305 -467q-303 -193 -731 -193t-731 192.5t-303 467.5q0 190 155 346q160 160 414 241q-8 156 67 254q70 88 170 88q82 0 144 -63q68 -70 86 -201q18 131 86 201q61 63 143 63q100 0 170 -88q78 -98 68 -256q254 -82 411 -239q156 -156 156 -346z M1536 1206q2 18 2 54q0 131 -65 219q-59 78 -146 77q-76 0 -133 -63q-66 -72 -90 -201v-12l-2 6l-2 -6v12q-25 129 -90 201q-57 63 -133 63q-86 0 -146 -77q-66 -88 -65 -219q0 -35 2 -54q12 -129 77 -200q57 -63 140 -60q92 2 157 101q53 84 60 184q6 -100 59 -184 q66 -98 158 -101q82 -4 143.5 64.5t73.5 195.5zM1939 616q10 47 11 86q0 47 -17 84q-20 39 -51 35q-23 -4 -22 -26q0 -14 14 -27l-64 -80q-51 -57 -86 -82q-125 -92 -188 -84l-10 2q-195 121 -428 121q-201 0 -422 -123q-66 -10 -187 84q-61 45 -149 162q14 12 14 27 q0 23 -22 26q-29 4 -48.5 -31.5t-19.5 -87.5q0 -39 10 -86q-4 158 50 142q10 -4 102 -123q98 -129 213 -199q197 -305 459 -305q301 0 463 297q86 41 204 184q111 133 123 146q18 4 30.5 -12.5t16.5 -53.5q4 -41 4 -76zM1407 1221q-10 -80 -68 -80q-31 0 -50 30.5t-13 77.5 q12 80 67 80q33 0 52.5 -30.5t11.5 -77.5zM936 1249q6 -47 -13.5 -77.5t-50.5 -30.5q-57 0 -67 80q-8 47 11.5 77.5t51.5 30.5q56 0 68 -80zM1343 274q-80 -111 -243 -110q-141 0 -244 110q29 33 62 56q76 59 145 71q-6 -18 -6 -36q0 -59 57 -84q-4 33 -4 47q0 66 37 71 q114 -23 196 -125z" />
<glyph unicode="&#x3bc;" horiz-adv-x="2199" d="M2136 664q0 -272 -305 -467q-303 -193 -731 -193t-731 192.5t-303 467.5q0 190 155 346q160 160 414 241q-8 156 67 254q70 88 170 88q82 0 144 -63q68 -70 86 -201q18 131 86 201q61 63 143 63q100 0 170 -88q78 -98 68 -256q254 -82 411 -239q156 -156 156 -346z M1536 1206q2 18 2 54q0 131 -65 219q-59 78 -146 77q-76 0 -133 -63q-66 -72 -90 -201v-12l-2 6l-2 -6v12q-25 129 -90 201q-57 63 -133 63q-86 0 -146 -77q-66 -88 -65 -219q0 -35 2 -54q12 -129 77 -200q57 -63 140 -60q92 2 157 101q53 84 60 184q6 -100 59 -184 q66 -98 158 -101q82 -4 143.5 64.5t73.5 195.5zM1939 616q10 47 11 86q0 47 -17 84q-20 39 -51 35q-23 -4 -22 -26q0 -14 14 -27l-64 -80q-51 -57 -86 -82q-125 -92 -188 -84l-10 2q-195 121 -428 121q-201 0 -422 -123q-66 -10 -187 84q-61 45 -149 162q14 12 14 27 q0 23 -22 26q-29 4 -48.5 -31.5t-19.5 -87.5q0 -39 10 -86q-4 158 50 142q10 -4 102 -123q98 -129 213 -199q197 -305 459 -305q301 0 463 297q86 41 204 184q111 133 123 146q18 4 30.5 -12.5t16.5 -53.5q4 -41 4 -76zM1407 1221q-10 -80 -68 -80q-31 0 -50 30.5t-13 77.5 q12 80 67 80q33 0 52.5 -30.5t11.5 -77.5zM936 1249q6 -47 -13.5 -77.5t-50.5 -30.5q-57 0 -67 80q-8 47 11.5 77.5t51.5 30.5q56 0 68 -80zM1343 274q-80 -111 -243 -110q-141 0 -244 110q29 33 62 56q76 59 145 71q-6 -18 -6 -36q0 -59 57 -84q-4 33 -4 47q0 66 37 71 q114 -23 196 -125z" />
<glyph unicode="&#xb6;" horiz-adv-x="1273" d="M1161 84q4 -41 -17.5 -62.5t-68.5 -21.5h-69q-90 0 -91 92v357q-6 -2 -24 -3h-100v-354q0 -92 -91 -92h-71q-86 0 -88 94v352h-9q-186 0 -319 127q-162 156 -162 463q0 295 166 439q127 113 324 112l430 2q57 0 104 -24q86 -45 86 -160v-1321zM915 1358l-124 2v-686h102 q12 0 22 28v656zM541 1360q-242 -6 -242 -316q0 -362 242 -370v686z" />
<glyph unicode="&#xb7;" horiz-adv-x="2205" d="M629 434q-109 66 -209 197q-45 66 -96 117q-14 4 -22.5 -9.5t-12.5 -46.5q-6 -45 -4 -74l-17 -4q-6 31 -10 64q-6 70 15.5 110.5t54.5 40.5q37 0 37 -34q0 -12 -13 -29q80 -102 142 -152q117 -90 176 -79q219 121 422 120q233 0 426 -118l6 -2q4 0 8 -3q66 0 172 82 q61 49 141 152q-12 16 -12 29q0 35 37 34q31 0 51 -38q37 -63 8 -177l-16 4q0 20 -4 74q-4 33 -13.5 46.5t-21.5 9.5q-8 -4 -96 -119q-117 -150 -226 -203q-162 -297 -460 -297q-262 0 -463 305zM1923 713q-2 41 -17.5 68.5t-35.5 29.5q-18 4 -19 -14q0 -12 17 -29 q-90 -121 -154 -168q-115 -84 -182 -84h-12l-11 4q-190 117 -417 117q-197 0 -416 -121q-70 -10 -193 84q-61 45 -155 168q18 14 18 29q0 18 -16 14q-23 0 -38.5 -25.5t-17.5 -72.5q8 33 20.5 45t33.5 8q8 -2 106 -125q100 -131 209 -195q195 -299 449 -299q287 0 448 291 q102 51 223 203l49 68q39 49 58 57q20 4 32.5 -8t20.5 -45zM1266 1243q12 80 67 80q31 0 50.5 -30.5t13.5 -78.5q-12 -80 -68 -79q-31 0 -50 30.5t-13 77.5zM930 1243q-12 80 -68 80q-31 0 -50 -30.5t-13 -78.5q12 -80 67 -79q31 0 50.5 30.5t13.5 77.5zM1092 170 q-141 0 -242 111q31 31 61 55q72 57 144 70q-4 -25 -4 -35q0 -59 55 -84q-4 29 -4 47q0 63 37 69q111 -20 194 -122q-79 -111 -241 -111zM627 1229q-246 -80 -398 -234q-147 -152 -147 -331q0 -262 295 -451q293 -186 714.5 -186t714.5 186q295 188 295 451 q0 180 -147.5 331.5t-392.5 233.5v-10q-12 -139 -82 -215q-63 -70 -150 -70q-90 0 -158 72q-59 66 -77 157q-20 -104 -87 -166.5t-149 -62.5q-88 0 -149 70q-70 76 -82 215v10zM1563 1255q254 -82 409 -241q156 -156 156 -350q0 -276 -305 -471q-303 -193 -731 -193 t-731.5 192.5t-303.5 471.5q0 190 158 354q150 154 410 237q-4 152 73 248q72 86 170 86q80 0 140 -57q63 -63 86 -182q23 119 86 182q59 57 139 57q102 0 172 -86q76 -92 72 -248zM1085 1225q-4 29 0 57l-6 57q-59 207 -207 207q-86 0 -145 -78q-66 -84 -65 -215 q0 -16 4 -53q14 -178 129 -237q31 -12 65 -13q88 0 153.5 76t71.5 199zM1294 954q53 -10 99 9q113 57 131 237q2 18 2 53q0 131 -60.5 212t-148.5 81q-92 0 -156 -88q-53 -82 -59 -176q4 -29 0 -57q6 -111 60 -184t132 -87z" />
<glyph unicode="&#x2219;" horiz-adv-x="2205" d="M629 434q-109 66 -209 197q-45 66 -96 117q-14 4 -22.5 -9.5t-12.5 -46.5q-6 -45 -4 -74l-17 -4q-6 31 -10 64q-6 70 15.5 110.5t54.5 40.5q37 0 37 -34q0 -12 -13 -29q80 -102 142 -152q117 -90 176 -79q219 121 422 120q233 0 426 -118l6 -2q4 0 8 -3q66 0 172 82 q61 49 141 152q-12 16 -12 29q0 35 37 34q31 0 51 -38q37 -63 8 -177l-16 4q0 20 -4 74q-4 33 -13.5 46.5t-21.5 9.5q-8 -4 -96 -119q-117 -150 -226 -203q-162 -297 -460 -297q-262 0 -463 305zM1923 713q-2 41 -17.5 68.5t-35.5 29.5q-18 4 -19 -14q0 -12 17 -29 q-90 -121 -154 -168q-115 -84 -182 -84h-12l-11 4q-190 117 -417 117q-197 0 -416 -121q-70 -10 -193 84q-61 45 -155 168q18 14 18 29q0 18 -16 14q-23 0 -38.5 -25.5t-17.5 -72.5q8 33 20.5 45t33.5 8q8 -2 106 -125q100 -131 209 -195q195 -299 449 -299q287 0 448 291 q102 51 223 203l49 68q39 49 58 57q20 4 32.5 -8t20.5 -45zM1266 1243q12 80 67 80q31 0 50.5 -30.5t13.5 -78.5q-12 -80 -68 -79q-31 0 -50 30.5t-13 77.5zM930 1243q-12 80 -68 80q-31 0 -50 -30.5t-13 -78.5q12 -80 67 -79q31 0 50.5 30.5t13.5 77.5zM1092 170 q-141 0 -242 111q31 31 61 55q72 57 144 70q-4 -25 -4 -35q0 -59 55 -84q-4 29 -4 47q0 63 37 69q111 -20 194 -122q-79 -111 -241 -111zM627 1229q-246 -80 -398 -234q-147 -152 -147 -331q0 -262 295 -451q293 -186 714.5 -186t714.5 186q295 188 295 451 q0 180 -147.5 331.5t-392.5 233.5v-10q-12 -139 -82 -215q-63 -70 -150 -70q-90 0 -158 72q-59 66 -77 157q-20 -104 -87 -166.5t-149 -62.5q-88 0 -149 70q-70 76 -82 215v10zM1563 1255q254 -82 409 -241q156 -156 156 -350q0 -276 -305 -471q-303 -193 -731 -193 t-731.5 192.5t-303.5 471.5q0 190 158 354q150 154 410 237q-4 152 73 248q72 86 170 86q80 0 140 -57q63 -63 86 -182q23 119 86 182q59 57 139 57q102 0 172 -86q76 -92 72 -248zM1085 1225q-4 29 0 57l-6 57q-59 207 -207 207q-86 0 -145 -78q-66 -84 -65 -215 q0 -16 4 -53q14 -178 129 -237q31 -12 65 -13q88 0 153.5 76t71.5 199zM1294 954q53 -10 99 9q113 57 131 237q2 18 2 53q0 131 -60.5 212t-148.5 81q-92 0 -156 -88q-53 -82 -59 -176q4 -29 0 -57q6 -111 60 -184t132 -87z" />
<glyph unicode="&#xb8;" horiz-adv-x="342" d="M61 -135l39 135h105l-23 -70q66 2 103 -31.5t34 -88.5q-4 -98 -85.5 -135t-192.5 6q-20 6 -21 22v70q0 23 21 12q41 -20 79 -28.5t65.5 1t27.5 39.5q0 33 -27.5 40t-101.5 7q-23 1 -23 21z" />
<glyph unicode="&#xb9;" horiz-adv-x="952" d="M922 84q0 -86 -93 -86h-696q-90 0 -90 90v62q0 90 92 90h232v1022l-95 -66q-78 -47 -127 -47q-47 0 -71 41q-43 72 -43 106q0 43 45 70l147 90l113 72q88 51 137 61h55q88 0 88 -92v-1257h222q84 0 84 -90v-66z" />
<glyph unicode="&#xba;" horiz-adv-x="790" d="M739 1223q0 -180 -84 -299q-94 -129 -260 -129q-168 0 -260 129q-84 119 -84 299q0 182 84 297q92 129 260 129q166 0 260 -129q84 -119 84 -297zM563 1222.5q0 266.5 -168 266.5q-170 0 -170 -266.5t170 -266.5q168 0 168 266.5z" />
<glyph unicode="&#xbb;" horiz-adv-x="1253" d="M1180 752l-379 -426q-31 -33 -66 -33t-63 26l-51 46q-31 29 -31 63q0 33 26 66l269 297l-307 256q-37 31 -37 65q0 37 65 115q31 37 70 37q33 0 59 -25l430 -360q37 -35 37 -72q1 -26 -22 -55zM690 752l-381 -426q-27 -33 -63 -33q-35 0 -64 26l-53 46q-31 29 -31 59 q0 35 29 70l266 297l-305 256q-37 31 -37 65q0 37 66 115q31 37 67 37q33 0 60 -25l432 -360q37 -29 37 -72q0 -26 -23 -55z" />
<glyph unicode="&#xbc;" horiz-adv-x="2048" />
<glyph unicode="&#xbd;" horiz-adv-x="2048" />
<glyph unicode="&#xbe;" horiz-adv-x="3076" d="M3045 387q0 -84 -92 -90h-61v-207q0 -92 -88 -92h-80q-80 0 -80 92v211h-645q-94 0 -94 86v53q4 25 8 39q14 49 55 109l660 952q33 49 90 49h80q94 0 94 -98v-944h24q49 0 78 -8q51 -14 51 -82v-70zM2646 1174l-403 -627h403v627zM1837 1538l-538 -1526q-29 -74 -103 -73 h-67q-78 0 -78 69q0 20 6 39l538 1526q27 74 103 74h70q76 0 75 -70q0 -16 -6 -39zM948 520q0 -227 -106 -370q-119 -162 -355 -162q-287 0 -411 174q-25 27 -25 53.5t31 58.5q6 6 24.5 27t27.5 30t24.5 19t29.5 10q31 0 56 -32q35 -53 116 -86q74 -27 123 -27h11 q86 2 149 94q59 84 59 185q0 88 -49 141q-51 61 -155 61h-129q-92 0 -93 90v70q0 88 95 88h135q88 0 133 82q39 66 39 172q0 70 -47 117q-55 55 -160 55q-131 0 -192 -72q-20 -31 -54 -30q-29 0 -55 32q-35 35 -51 54q-31 35 -31 59q0 29 27 55q129 133 364 134 q215 0 330 -113q111 -111 111 -299q0 -225 -107 -356q135 -124 135 -314z" />
<glyph unicode="&#xbf;" horiz-adv-x="1095" d="M786 1448q0 -90 -90 -90h-69q-86 0 -88 94v47q0 90 90 90h67q84 0 90 -94v-47zM1042 199q-80 -96 -194 -152q-127 -63 -260 -63q-199 0 -338 77q-215 121 -219 424q0 137 49 246q102 219 379 219h49q29 0 33 35v217q0 98 88 98h69q88 0 88 -94v-209q0 -295 -237 -295h-92 q-104 0 -152 -104q-27 -59 -26 -119q0 -135 114 -203q86 -49 203 -49q68 0 141 31q86 37 125 94q25 45 56 45q20 0 38 -20l84 -86q25 -29 25 -45q0 -18 -23 -47z" />
<glyph unicode="&#xc0;" horiz-adv-x="1337" d="M1292 80q2 -6 2 -23q0 -63 -84 -63h-67q-74 0 -105 80q-10 25 -129 370h-503l-134 -370q-27 -76 -102 -76h-68q-82 0 -82 59q0 8 5 25l499 1431q27 76 103 76h67q76 0 103 -76zM831 674l-172 497l-174 -497h346zM522 1782l-53 147q-6 20 -6 39q0 70 76 70h69 q76 0 103 -74l53 -145q6 -20 6 -41q0 -70 -76 -70h-67q-78 0 -105 74z" />
<glyph unicode="&#xc1;" horiz-adv-x="1337" d="M1292 80q2 -6 2 -23q0 -63 -84 -63h-67q-74 0 -105 80q-10 25 -129 370h-503l-134 -370q-27 -76 -102 -76h-68q-82 0 -82 59q0 8 5 25l499 1431q27 76 103 76h67q76 0 103 -76zM831 674l-172 497l-174 -497h346zM850 1929l-53 -147q-27 -74 -105 -74h-67q-76 0 -76 70 q0 20 6 41l53 145q27 74 103 74h69q76 0 76 -70q0 -19 -6 -39z" />
<glyph unicode="&#xc2;" horiz-adv-x="1337" d="M1292 80q2 -6 2 -23q0 -63 -84 -63h-67q-74 0 -105 80q-10 25 -129 370h-503l-134 -370q-27 -76 -102 -76h-68q-82 0 -82 59q0 8 5 25l499 1431q27 76 103 76h67q76 0 103 -76zM831 674l-172 497l-174 -497h346zM936 1823q6 -20 6 -43q0 -72 -76 -72h-69q-20 4 -31 10 q-33 14 -64 51l-40 56q-8 -14 -19 -27q-2 -6 -16 -24q-53 -66 -105 -66h-67q-82 0 -82 61q0 25 12 54q18 31 61 88l62 82q41 45 86 45h149q39 0 84 -64z" />
<glyph unicode="&#xc3;" horiz-adv-x="1337" d="M1292 80q2 -6 2 -23q0 -63 -84 -63h-67q-74 0 -105 80q-10 25 -129 370h-503l-134 -370q-27 -76 -102 -76h-68q-82 0 -82 59q0 8 5 25l499 1431q27 76 103 76h67q76 0 103 -76zM831 674l-172 497l-174 -497h346zM782 1683q-63 0 -116.5 35t-77.5 97q-4 10 -15 14 q-8 4 -12 4q-2 0 -10 -4q-20 -6 -21 -25l2 -8q2 -8 3 -22q0 -31 -18.5 -55.5t-47.5 -32.5q-8 -2 -25 -3q-70 0 -86 66q-6 29 -6 53q0 63 35 116.5t96 78.5q39 16 78 16t82 -16q82 -35 113 -115q6 -16 14 -16q4 -2 16 -2q25 8 25 30q-2 14 -2 29q0 29 18.5 53.5t46.5 32.5 q8 2 23 2q29 0 53.5 -18.5t32.5 -46.5q8 -25 8 -56q0 -63 -35.5 -115.5t-95.5 -76.5q-37 -15 -78 -15z" />
<glyph unicode="&#xc4;" horiz-adv-x="1337" d="M926 1845v-47q0 -90 -90 -90h-70q-86 0 -88 92v47q0 90 92 90h68q84 0 88 -92zM643 1845l-2 -47q-4 -90 -90 -90h-70q-84 0 -88 92v47q0 90 92 90h68q84 0 90 -92zM1292 80q2 -6 2 -23q0 -63 -84 -63h-67q-74 0 -105 80q-10 25 -129 370h-503l-134 -370q-27 -76 -102 -76 h-68q-82 0 -82 59q0 8 5 25l499 1431q27 76 103 76h67q76 0 103 -76zM831 674l-172 497l-174 -497h346z" />
<glyph unicode="&#xc5;" horiz-adv-x="1337" d="M903 1921v-8q0 -86 -61.5 -145.5t-147.5 -59.5h-67q-96 0 -156 72q-51 63 -51 159q0 94 53 160q59 74 158 74h67q205 0 205 -252zM1292 80q2 -6 2 -23q0 -63 -84 -63h-67q-74 0 -105 80q-10 25 -129 370h-503l-134 -370q-27 -76 -102 -76h-68q-82 0 -82 59q0 8 5 25 l499 1431q27 76 103 76h67q76 0 103 -76zM737 1962q0 43 -39 43h-67q-33 0 -41 -31q-2 -6 -2 -57q0 -41 30 -41h76q33 0 41 33q2 6 2 53zM831 674l-172 497l-174 -497h346z" />
<glyph unicode="&#xc6;" horiz-adv-x="1769" d="M1718 86q0 -88 -92 -88h-555q-205 12 -205 223v223h-454q-37 -121 -117 -350q-47 -96 -119 -96h-67q-78 0 -78 70q0 20 6 38l455 1299q66 186 260 186h876q90 0 90 -92v-76q0 -88 -92 -88h-506v-379h424q88 0 88 -94v-78q0 -78 -80 -77h-432v-461h508q90 0 90 -92v-68z M866 674v663h-98q-53 0 -80 -69q-102 -264 -201 -594h379z" />
<glyph unicode="&#xc7;" horiz-adv-x="1140" d="M582 -135l34 121q-240 18 -403 252q-162 236 -162 589q0 373 178 584q166 197 426 197q242 0 404 -162q31 -31 31 -62q0 -20 -17 -36l-69 -72q-31 -31 -60 -31q-27 0 -49 29q-74 104 -240 104q-125 0 -229 -131q-125 -156 -125 -420q0 -274 127 -456q109 -158 227 -158 q78 0 148 39q92 53 133 158l135 -136q18 -18 19 -45q0 -31 -21 -63q-127 -150 -350 -178l-10 -58q61 0 96 -32.5t35 -87.5q0 -72 -46 -112t-120 -40q-51 0 -113 23q-20 6 -20 22v70q0 14 10 14q6 0 10 -2q66 -31 117 -31q55 0 55 43q0 33 -27.5 40t-101.5 7q-22 1 -22 21z " />
<glyph unicode="&#xc8;" horiz-adv-x="1161" d="M1100 86q0 -86 -92 -86h-764q-162 0 -162 147v1258q0 115 86 160q45 25 104 24h738q90 0 90 -92v-67q0 -84 -92 -91h-680v-395h596q92 0 92 -92v-66q0 -90 -94 -90h-592v-452h680q90 0 90 -90v-68zM487 1782l-53 147q-6 20 -6 39q0 70 76 70h69q74 0 103 -74l53 -145 q6 -20 6 -41q0 -70 -76 -70h-67q-76 0 -105 74z" />
<glyph unicode="&#xc9;" horiz-adv-x="1161" d="M1100 86q0 -86 -92 -86h-764q-162 0 -162 147v1258q0 115 86 160q45 25 104 24h738q90 0 90 -92v-67q0 -84 -92 -91h-680v-395h596q92 0 92 -92v-66q0 -90 -94 -90h-592v-452h680q90 0 90 -90v-68zM741 1929l-53 -147q-29 -74 -104 -74h-68q-76 0 -76 70q0 20 6 41 l54 145q29 74 102 74h70q76 0 76 -70q-1 -19 -7 -39z" />
<glyph unicode="&#xca;" horiz-adv-x="1161" d="M1100 86q0 -86 -92 -86h-764q-162 0 -162 147v1258q0 115 86 160q45 25 104 24h738q90 0 90 -92v-67q0 -84 -92 -91h-680v-395h596q92 0 92 -92v-66q0 -90 -94 -90h-592v-452h680q90 0 90 -90v-68zM864 1823q6 -20 6 -43q0 -72 -75 -72h-70q-20 4 -31 10q-33 14 -63 51 l-41 56q-8 -14 -19 -27q-2 -6 -16 -24q-53 -66 -104 -66h-68q-82 0 -82 61q0 25 12 54q18 31 62 88l61 82q41 45 86 45h150q39 0 84 -64z" />
<glyph unicode="&#xcb;" horiz-adv-x="1161" d="M887 1845v-47q0 -90 -90 -90h-72q-86 0 -88 94l2 47q4 90 90 90h70q86 0 88 -94zM602 1845v-47q0 -90 -90 -90h-70q-84 0 -90 94l2 47q4 90 90 90h70q86 0 88 -94zM1100 86q0 -86 -92 -86h-764q-162 0 -162 147v1258q0 115 86 160q45 25 104 24h738q90 0 90 -92v-67 q0 -84 -92 -91h-680v-395h596q92 0 92 -92v-66q0 -90 -94 -90h-592v-452h680q90 0 90 -90v-68z" />
<glyph unicode="&#xcc;" horiz-adv-x="522" d="M403 90q0 -90 -90 -90h-69q-88 0 -88 92v1213q0 51 -39 77q-47 35 -47 82q0 23 12 43l39 47q35 41 78 41q25 0 45 -14l6 -4q141 -98 153 -258v-1229zM154 1782l-54 147q-6 20 -6 39q0 70 76 70h70q76 0 102 -74l53 -145q6 -20 6 -41q0 -70 -75 -70h-68q-77 0 -104 74z " />
<glyph unicode="&#xcd;" horiz-adv-x="522" d="M424 2007l-105 -283q-29 -74 -102 -73h-70q-76 0 -75 69q0 20 6 41l102 283q29 74 105 74h67q78 0 78 -72q0 -19 -6 -39zM403 90q0 -90 -90 -90h-69q-88 0 -88 92v1213q0 51 -39 77q-47 35 -47 82q0 23 12 43l39 47q35 41 78 41q25 0 45 -14l6 -4q141 -98 153 -258v-1229 z" />
<glyph unicode="&#xce;" horiz-adv-x="786" d="M508 90q0 -90 -90 -90h-70q-88 0 -88 92v1213q0 51 -39 77q-47 35 -47 82q0 23 12 43l39 47q35 41 78 41q25 0 45 -14l6 -4q141 -94 154 -258v-1229zM641 1823q6 -20 6 -43q0 -72 -76 -72h-69q-20 4 -31 10q-33 14 -63 51l-41 56q-8 -14 -19 -27q-2 -6 -16 -24 q-53 -66 -105 -66h-67q-82 0 -82 61q0 25 12 54q18 31 62 88l61 82q41 45 86 45h150q39 0 83 -64z" />
<glyph unicode="&#xcf;" horiz-adv-x="593" d="M563 1845v-47q0 -90 -90 -90h-70q-86 0 -88 94v47q0 90 93 90h67q86 0 88 -94zM281 1845l-2 -47q-4 -90 -91 -90h-69q-86 0 -88 94v47q0 90 92 90h67q85 0 91 -94zM430 90q0 -90 -90 -90h-70q-88 0 -88 92v1213q0 51 -39 77q-47 35 -47 82q0 23 13 43l36 47q35 41 78 41 q25 0 45 -14l6 -4q139 -94 156 -258v-1229z" />
<glyph unicode="&#xd1;" horiz-adv-x="1374" d="M1272 1493l-2 -1401q0 -92 -92 -92h-66q-47 0 -94 68l-682 1017v-993q0 -92 -90 -92h-70q-88 0 -88 94v1401q0 90 90 90h64q49 0 88 -49l692 -1028v987q0 90 92 90h68q84 0 90 -92zM764 1710q-63 0 -116.5 35t-78.5 96q-4 10 -14 14q-8 4 -12 5q-2 0 -11 -5 q-20 -6 -20 -24l2 -8q2 -8 2 -23q0 -31 -18.5 -55.5t-46.5 -32.5q-8 -2 -25 -2q-70 0 -86 66q-6 27 -6 53q0 63 34.5 116.5t96.5 77.5q39 16 78 16.5t82 -16.5q82 -35 112 -114q6 -16 15 -17q4 -2 16 -2q25 8 25 31q-2 14 -2 29q0 29 18 53.5t47 32.5q8 2 23 2 q29 0 53 -18.5t33 -47.5q8 -25 8 -55q0 -63 -36 -115.5t-95 -77.5q-37 -14 -78 -14z" />
<glyph unicode="&#xd2;" horiz-adv-x="1312" d="M1251 827q0 -442 -176 -659q-156 -186 -430 -186t-428 186q-176 217 -176 659q0 395 180 596q158 182 424 182.5t426 -182.5q180 -201 180 -596zM1001 827q0 301 -124 445q-94 106 -232 106q-135 0 -229 -106q-125 -143 -125 -445q0 -344 127 -501q92 -115 227 -115 q137 0 229 115q127 157 127 501zM508 1782l-53 147q-6 20 -6 39q0 70 75 70h70q74 0 102 -74l54 -145q6 -20 6 -41q0 -70 -76 -70h-68q-75 0 -104 74z" />
<glyph unicode="&#xd3;" horiz-adv-x="1312" d="M1251 827q0 -442 -176 -659q-156 -186 -430 -186t-428 186q-176 217 -176 659q0 395 180 596q158 182 424 182.5t426 -182.5q180 -201 180 -596zM1001 827q0 301 -124 445q-94 106 -232 106q-135 0 -229 -106q-125 -143 -125 -445q0 -344 127 -501q92 -115 227 -115 q137 0 229 115q127 157 127 501zM834 1929l-54 -147q-27 -74 -104 -74h-68q-76 0 -76 70q0 20 7 41l53 145q27 74 102 74h70q76 0 76 -70q0 -19 -6 -39z" />
<glyph unicode="&#xd4;" horiz-adv-x="1312" d="M1251 827q0 -442 -176 -659q-156 -186 -430 -186t-428 186q-176 217 -176 659q0 395 180 596q158 182 424 182.5t426 -182.5q180 -201 180 -596zM1001 827q0 301 -124 445q-94 106 -232 106q-135 0 -229 -106q-125 -143 -125 -445q0 -344 127 -501q92 -115 227 -115 q137 0 229 115q127 157 127 501zM922 1823q6 -20 6 -43q0 -72 -76 -72h-70q-20 4 -30 10q-33 14 -64 51l-41 56q-8 -14 -18 -27q-2 -6 -17 -24q-53 -66 -104 -66h-68q-82 0 -82 61q0 25 13 54q18 31 61 88l62 82q41 45 86 45h149q39 0 84 -64z" />
<glyph unicode="&#xd5;" horiz-adv-x="1312" d="M1251 827q0 -442 -176 -659q-156 -186 -430 -186t-428 186q-176 217 -176 659q0 395 180 596q158 182 424 182.5t426 -182.5q180 -201 180 -596zM1001 827q0 301 -124 445q-94 106 -232 106q-135 0 -229 -106q-125 -143 -125 -445q0 -344 127 -501q92 -115 227 -115 q137 0 229 115q127 157 127 501zM733 1708q-63 0 -116.5 35t-77.5 96q-4 10 -15 14q-8 4 -12 5q-2 0 -10 -5q-20 -6 -21 -24l2 -8q2 -8 2 -23q0 -31 -18 -55.5t-47 -32.5q-8 -2 -25 -2q-70 0 -86 66q-6 29 -6 53q0 63 35 116.5t96 77.5q39 16 78 16.5t82 -16.5 q82 -35 113 -114q6 -16 14 -17q4 -2 16 -2q25 8 25 31q-2 14 -2 29q0 29 18.5 53t46.5 33q8 2 23 2q29 0 53.5 -18.5t32.5 -47.5q8 -25 8 -55q0 -63 -36 -115.5t-95 -77.5q-37 -14 -78 -14z" />
<glyph unicode="&#xd6;" horiz-adv-x="1312" d="M915 1845v-47q0 -90 -90 -90h-69q-88 0 -90 94l2 47q4 90 90 90h69q86 0 88 -94zM631 1845v-47q0 -90 -90 -90h-70q-86 0 -88 94v47q0 90 92 90h68q86 0 88 -94zM1251 827q0 -442 -176 -659q-156 -186 -430 -186t-428 186q-176 217 -176 659q0 395 180 596 q158 182 424 182.5t426 -182.5q180 -201 180 -596zM1001 827q0 301 -124 445q-94 106 -232 106q-135 0 -229 -106q-125 -143 -125 -445q0 -344 127 -501q92 -115 227 -115q137 0 229 115q127 157 127 501z" />
<glyph unicode="&#xd7;" horiz-adv-x="864" d="M764 645q31 -31 31 -63q0 -39 -33 -66l-47 -49q-29 -29 -60 -29q-37 0 -69 31l-154 156l-156 -156q-31 -31 -63 -31q-39 0 -63 31l-52 49q-29 29 -28 57q0 37 32 70l154 156l-152 151q-31 31 -30.5 66t28.5 63l50 49q29 29 59 29q37 0 70 -33l151 -151l154 153 q31 31 63 31q29 0 66 -31l47 -49q27 -27 26.5 -61.5t-28.5 -67.5l-152 -151z" />
<glyph unicode="&#xd8;" horiz-adv-x="1310" d="M1260 827q0 -371 -175 -606q-176 -238 -430 -237q-78 0 -151 24q-27 -70 -101 -69h-69q-76 0 -76 69q0 16 6 39l33 92q-246 242 -246 688q0 373 178 584q166 197 426 197q86 0 154 -21q29 59 96 60h70q76 0 76 -70q0 -16 -7 -39l-22 -65q238 -214 238 -646zM1012 827 q0 217 -88 367l-340 -965q37 -16 71 -16q119 0 230 158q127 182 127 456zM729 1366q-37 12 -74 12q-125 0 -229 -131q-125 -156 -125 -420q0 -231 94 -405z" />
<glyph unicode="&#xd9;" horiz-adv-x="1339" d="M1257 1497v-926q0 -299 -223 -460q-170 -125 -372 -125q-205 0 -375 125q-225 164 -226 460v926q0 92 89 92h63q92 0 92 -90v-911q0 -166 117 -275q106 -96 237.5 -96t237.5 96q117 109 117 275v911q0 90 92 90h63q84 0 88 -92zM522 1782l-53 147q-6 20 -6 39q0 70 76 70 h69q76 0 103 -74l53 -145q6 -20 6 -41q0 -70 -76 -70h-67q-78 0 -105 74z" />
<glyph unicode="&#xda;" horiz-adv-x="1339" d="M1257 1497v-926q0 -299 -223 -460q-170 -125 -372 -125q-205 0 -375 125q-225 164 -226 460v926q0 92 89 92h63q92 0 92 -90v-911q0 -166 117 -275q106 -96 237.5 -96t237.5 96q117 109 117 275v911q0 90 92 90h63q84 0 88 -92zM819 1929l-53 -147q-29 -74 -104 -74h-68 q-76 0 -76 70q0 20 6 41l54 145q29 74 102 74h70q76 0 75 -70q0 -19 -6 -39z" />
<glyph unicode="&#xdb;" horiz-adv-x="1339" d="M1257 1497v-926q0 -299 -223 -460q-170 -125 -372 -125q-205 0 -375 125q-225 164 -226 460v926q0 92 89 92h63q92 0 92 -90v-911q0 -166 117 -275q106 -96 237.5 -96t237.5 96q117 109 117 275v911q0 90 92 90h63q84 0 88 -92zM938 1823q6 -20 6 -43q0 -72 -76 -72h-69 q-20 4 -31 10q-33 14 -63 51l-41 56q-8 -14 -19 -27q-2 -6 -16 -24q-53 -66 -105 -66h-67q-82 0 -82 61q0 25 12 54q18 31 62 88l61 82q41 45 86 45h149q39 0 84 -64z" />
<glyph unicode="&#xdc;" horiz-adv-x="1339" d="M936 1845v-47q0 -90 -90 -90h-70q-88 0 -90 94l2 47q4 90 90 90h70q86 0 88 -94zM651 1845v-47q0 -90 -90 -90h-69q-86 0 -89 94v47q0 90 93 90h67q86 0 88 -94zM1257 1497v-926q0 -299 -223 -460q-170 -125 -372 -125q-205 0 -375 125q-225 164 -226 460v926q0 92 89 92 h63q92 0 92 -90v-911q0 -166 117 -275q106 -96 237.5 -96t237.5 96q117 109 117 275v911q0 90 92 90h63q84 0 88 -92z" />
<glyph unicode="&#xdd;" horiz-adv-x="1374" d="M1331 1475l-530 -813v-574q0 -90 -90 -90h-70q-88 0 -88 92v582l-520 801q-6 23 -6 43q0 72 75 71h99q25 -4 32 -8q37 -14 62 -55l387 -590l387 592q37 57 94 63h99q76 0 75 -71q0 -23 -6 -43zM872 1929l-53 -147q-29 -74 -104 -74h-68q-76 0 -76 70q0 20 7 41l53 145 q29 74 102 74h70q76 0 76 -70q-1 -19 -7 -39z" />
<glyph unicode="&#xdf;" horiz-adv-x="1138" d="M1067 1112q0 -178 -117 -293q-10 -6 -10 -14q0 -6 14 -25q111 -121 111 -301q0 -307 -139 -411q-92 -70 -291 -70h-86q-86 0 -86 90v51q0 84 92 90h88q98 0 137 62q37 53 37 176q0 86 -72 182q-66 90 -65 172q0 59 63 142q76 100 76 165q0 168 -149 211q-61 16 -285 17 v-1299q0 -164 -158 -290q-23 -14 -49 -15q-45 0 -78 39l-37 47q-12 23 -12 43q0 49 45 82q39 27 43 78v1360q0 182 191 182h245q492 0 492 -471z" />
<glyph unicode="&#xe0;" d="M1006 78q-4 -78 -88 -78h-66q-80 0 -90 59q-125 -78 -240 -77q-188 0 -319 137q-162 164 -162 469q0 311 164 475q131 131 325 131q176 0 340 -139q135 -113 136 -201v-776zM762 328v522q-127 117 -219 117q-115 0 -183 -88q-72 -96 -71 -283q0 -387 254 -387 q106 0 219 119zM391 1339l-53 148q-6 20 -6 39q0 70 76 69h69q76 0 103 -73l53 -146q6 -20 6 -41q0 -70 -76 -69h-67q-78 -1 -105 73z" />
<glyph unicode="&#xe1;" d="M1006 78q-4 -78 -88 -78h-66q-80 0 -90 59q-125 -78 -240 -77q-188 0 -319 137q-162 164 -162 469q0 311 164 475q131 131 325 131q176 0 340 -139q135 -113 136 -201v-776zM762 328v522q-127 117 -219 117q-115 0 -183 -88q-72 -96 -71 -283q0 -387 254 -387 q106 0 219 119zM721 1487l-53 -148q-29 -74 -105 -73h-67q-76 0 -76 69q0 20 6 41l53 146q29 74 103 73h69q76 0 76 -69q0 -19 -6 -39z" />
<glyph unicode="&#xe2;" d="M819 1380q6 -20 6 -43q0 -72 -75 -71h-70q-20 4 -31 10q-33 14 -63 51l-41 55q-8 -14 -19 -26q-2 -6 -16 -25q-53 -66 -104 -65h-68q-82 0 -82 61q0 25 12 53q18 31 62 88l61 82q41 45 86 45h150q39 0 84 -63zM1006 78q-4 -78 -88 -78h-66q-80 0 -90 59 q-125 -78 -240 -77q-188 0 -319 137q-162 164 -162 469q0 311 164 475q131 131 325 131q176 0 340 -139q135 -113 136 -201v-776zM762 328v522q-127 117 -219 117q-115 0 -183 -88q-72 -96 -71 -283q0 -387 254 -387q106 0 219 119z" />
<glyph unicode="&#xe3;" horiz-adv-x="1122" d="M1028 78q-4 -78 -88 -78h-68q-82 0 -88 59q-127 -78 -241 -77q-188 0 -320 137q-162 164 -162 469q0 311 164 475q131 131 326 131q178 0 342 -139q135 -113 135 -201v-776zM782 328v522q-123 117 -219 117q-117 0 -180 -88q-72 -96 -72 -283q0 -387 252 -387 q106 0 219 119zM678 1266q-63 0 -116.5 34.5t-78.5 96.5q-4 10 -14 14q-8 4 -12 4q-2 0 -11 -4q-20 -6 -20 -25l2 -8q2 -8 2 -22q0 -31 -18.5 -55.5t-46.5 -32.5q-8 -2 -25 -2q-70 0 -86 65q-6 29 -6 53q0 63 34.5 116.5t96.5 78.5q39 16 78 16t82 -16q82 -35 112 -115 q6 -16 15 -16q4 -2 16 -2q25 8 25 31q-2 14 -2 28q0 29 18 53.5t47 32.5q8 2 23 2q29 0 53 -18.5t33 -46.5q8 -25 8 -55q0 -63 -36 -115.5t-95 -77.5q-37 -14 -78 -14z" />
<glyph unicode="&#xe4;" d="M819 1444l-2 -49q-4 -90 -90 -90h-70q-86 0 -88 94v47q0 90 93 90h67q84 0 90 -92zM535 1444v-49q0 -90 -93 -90h-69q-86 0 -88 94v47q0 90 92 90h69q87 0 89 -92zM1006 78q-4 -78 -88 -78h-66q-80 0 -90 59q-125 -78 -240 -77q-188 0 -319 137q-162 164 -162 469 q0 311 164 475q131 131 325 131q176 0 340 -139q135 -113 136 -201v-776zM762 328v522q-127 117 -219 117q-115 0 -183 -88q-72 -96 -71 -283q0 -387 254 -387q106 0 219 119z" />
<glyph unicode="&#xe5;" d="M788 1473v-13q-2 -88 -62 -147.5t-146 -59.5h-68q-96 0 -156 72q-51 63 -51 160q0 94 53 160q59 74 158 73h68q111 0 161 -82q43 -63 43 -163zM1006 78q-4 -78 -88 -78h-66q-80 0 -90 59q-125 -78 -240 -77q-188 0 -319 137q-162 164 -162 469q0 311 164 475 q131 131 325 131q176 0 340 -139q135 -113 136 -201v-776zM623 1509q0 41 -39 41h-68q-33 0 -41 -30q-2 -6 -2 -56q0 -43 39 -43h68q31 0 38 31q1 2 5 57zM762 328v522q-127 117 -219 117q-115 0 -183 -88q-72 -96 -71 -283q0 -387 254 -387q106 0 219 119z" />
<glyph unicode="&#xe6;" horiz-adv-x="1802" d="M1751 588v-74q0 -82 -92 -88h-629q18 -217 232 -217q82 0 145 41q61 43 82 43h98l21 2q59 0 59 -55q0 -78 -108 -162q-127 -96 -297 -96q-137 0 -246 65q-18 -61 -84 -61h-70q-80 0 -90 73q-125 -78 -240 -77q-188 0 -319 137q-162 164 -162 469q0 311 164 475 q131 131 326 131q190 0 342 -139l24 -21q131 162 355 162q238 0 370 -184q119 -162 119 -424zM1499 668q-35 299 -237 299q-209 0 -236 -299h473zM772 328v522q-123 117 -219 117q-115 0 -182 -88q-72 -96 -72 -283q0 -385 254 -385q106 0 219 117z" />
<glyph unicode="&#xe7;" horiz-adv-x="940" d="M455 -135l34 119q-209 18 -327 192q-111 164 -111 412q0 260 119 424q133 182 371 182q195 0 317 -127q29 -29 29 -57q0 -31 -72 -103l-10 -10q-27 -33 -55 -33q-33 0 -54 31q-57 70 -155 70q-109 0 -172 -88q-70 -96 -70 -289t70 -289q66 -90 172 -90q111 0 204 141 l123 -125q20 -20 21 -49q0 -27 -17 -55q-92 -125 -264 -139h-18l-8 -52q61 0 96 -32.5t35 -87.5q0 -72 -46 -112t-120 -40q-51 0 -113 23q-20 6 -20 22v70q0 14 10 14q6 0 10 -2q66 -31 117 -31q55 0 55 43q0 33 -27.5 40t-101.5 7q-22 1 -22 21z" />
<glyph unicode="&#xe8;" horiz-adv-x="1081" d="M1020 588v-74q0 -82 -92 -88h-621q51 -217 223 -217q82 0 146 41q61 43 82 43h133q61 0 61 -41q0 -117 -159 -201q-131 -70 -263 -69q-238 0 -370 182q-119 164 -119 424t119 424q131 184 370.5 184t370.5 -184q119 -164 119 -424zM768 668q-35 299 -238 299 q-209 0 -235 -299h473zM387 1339l-53 148q-6 20 -6 39q0 70 75 69h70q76 0 102 -73l54 -146q6 -20 6 -41q0 -70 -76 -69h-67q-78 -1 -105 73z" />
<glyph unicode="&#xe9;" horiz-adv-x="1081" d="M717 1487l-53 -148q-29 -74 -105 -73h-67q-76 0 -76 69q0 20 6 41l53 146q29 74 103 73h69q76 0 76 -69q0 -19 -6 -39zM1020 588v-74q0 -82 -92 -88h-621q51 -217 223 -217q82 0 146 41q61 43 82 43h133q61 0 61 -41q0 -117 -159 -201q-131 -70 -263 -69q-238 0 -370 182 q-119 164 -119 424t119 424q131 184 370.5 184t370.5 -184q119 -164 119 -424zM768 668q-35 299 -238 299q-209 0 -235 -299h473z" />
<glyph unicode="&#xea;" horiz-adv-x="1081" d="M1020 588v-74q0 -82 -92 -88h-621q51 -217 223 -217q82 0 146 41q61 43 82 43h133q61 0 61 -41q0 -117 -159 -201q-131 -70 -263 -69q-238 0 -370 182q-119 164 -119 424t119 424q131 184 370.5 184t370.5 -184q119 -164 119 -424zM768 668q-35 299 -238 299 q-209 0 -235 -299h473zM805 1380q6 -20 6 -43q0 -72 -76 -71h-69q-20 4 -31 10q-33 14 -64 51l-41 55q-8 -14 -18 -26q-2 -6 -16 -25q-53 -66 -105 -65h-67q-82 0 -82 61q0 25 12 53q18 31 61 88l62 82q41 45 86 45h149q39 0 84 -63z" />
<glyph unicode="&#xeb;" horiz-adv-x="1081" d="M778 1409l-2 -49q-4 -90 -90 -90h-70q-86 0 -88 94v47q0 90 93 90h67q84 0 90 -92zM494 1409v-49q0 -90 -93 -90h-69q-86 0 -88 94v47q0 90 92 90h70q86 0 88 -92zM1020 588v-74q0 -82 -92 -88h-621q51 -217 223 -217q82 0 146 41q61 43 82 43h133q61 0 61 -41 q0 -117 -159 -201q-131 -70 -263 -69q-238 0 -370 182q-119 164 -119 424t119 424q131 184 370.5 184t370.5 -184q119 -164 119 -424zM768 668q-35 299 -238 299q-209 0 -235 -299h473z" />
<glyph unicode="&#xec;" horiz-adv-x="419" d="M328 1083l-2 -991q0 -90 -90 -90h-70q-88 0 -88 92v991q0 92 92 93h68q84 -1 90 -95zM66 1339l-54 148q-6 20 -6 39q0 70 76 69h70q74 0 102 -73l53 -146q6 -20 6 -41q0 -70 -75 -69h-68q-75 -1 -104 73z" />
<glyph unicode="&#xed;" horiz-adv-x="460" d="M356 1083l-2 -991q0 -90 -90 -90h-69q-88 0 -89 92v991q0 92 93 93h67q84 -1 90 -95zM422 1487l-53 -148q-29 -74 -105 -73h-67q-76 0 -76 69q0 20 6 41l53 146q29 74 103 73h69q76 0 76 -69q0 -19 -6 -39z" />
<glyph unicode="&#xee;" horiz-adv-x="827" d="M791 1335q6 -20 6 -45q0 -72 -76 -71h-70q-20 4 -30 10q-33 14 -64 51l-139 195q-23 -37 -133 -191q-61 -66 -103 -65h-69q-82 0 -82 63q0 25 12 53q2 2 182 258q6 10 23 31q45 63 100 64h150q39 0 84 -64zM526 1083v-991q0 -90 -90 -90h-69q-88 0 -88 92v991q0 92 90 93 h69q86 -1 88 -95z" />
<glyph unicode="&#xef;" horiz-adv-x="593" d="M563 1464v-47q0 -90 -90 -90h-70q-86 0 -88 94v47q0 90 93 91h67q86 -1 88 -95zM281 1464l-2 -47q-4 -90 -91 -90h-69q-86 0 -88 94v47q0 90 92 91h67q85 -1 91 -95zM406 1083v-991q0 -90 -91 -90h-69q-88 0 -88 92v991q0 92 90 93h69q87 -1 89 -95z" />
<glyph unicode="&#xf1;" horiz-adv-x="1142" d="M1053 90q0 -92 -90 -92h-70q-84 0 -90 94v492q0 377 -254 377q-106 0 -219 -119v-752q0 -90 -90 -90h-66q-88 0 -88 92v993q0 92 88 93h64q78 0 90 -68q125 78 241 78q188 0 320 -135q164 -170 164 -469v-494zM651 1266q-63 0 -116.5 34.5t-77.5 96.5q-4 10 -15 14 q-8 4 -12 4q-2 0 -10 -4q-20 -6 -21 -25l2 -8q2 -8 2 -22q0 -31 -18 -55.5t-47 -32.5q-8 -2 -25 -2q-70 0 -86 65q-6 29 -6 53q0 63 35 116.5t96 78.5q39 16 78 16t82 -16q82 -35 113 -115q6 -16 14 -16q4 -2 16 -2q25 8 25 31q-2 14 -2 28q0 29 18.5 53.5t46.5 32.5 q8 2 23 2q29 0 53.5 -18.5t32.5 -46.5q8 -25 8 -55q0 -63 -36 -115.5t-95 -77.5q-37 -14 -78 -14z" />
<glyph unicode="&#xf2;" horiz-adv-x="1083" d="M1022 590q0 -262 -119 -426q-133 -184 -370.5 -184t-370.5 184q-121 168 -121 426q0 256 121 424q133 184 370.5 184t370.5 -184q119 -164 119 -424zM774 590q0 193 -69 289q-66 90 -172.5 90t-172.5 -90q-70 -96 -69 -289q0 -195 69 -291q66 -90 172.5 -90t172.5 90 q69 96 69 291zM395 1339l-53 148q-6 20 -6 39q0 70 76 69h69q76 0 103 -73l53 -146q6 -20 6 -41q0 -70 -76 -69h-67q-78 -1 -105 73z" />
<glyph unicode="&#xf3;" horiz-adv-x="1083" d="M1022 590q0 -262 -119 -426q-133 -184 -370.5 -184t-370.5 184q-121 168 -121 426q0 256 121 424q133 184 370.5 184t370.5 -184q119 -164 119 -424zM774 590q0 193 -69 289q-66 90 -172.5 90t-172.5 -90q-70 -96 -69 -289q0 -195 69 -291q66 -90 172.5 -90t172.5 90 q69 96 69 291zM723 1487l-53 -148q-27 -74 -105 -73h-67q-76 0 -76 69q0 20 6 41l53 146q27 74 103 73h69q76 0 76 -69q0 -19 -6 -39z" />
<glyph unicode="&#xf4;" horiz-adv-x="1083" d="M1022 590q0 -262 -119 -426q-133 -184 -370.5 -184t-370.5 184q-121 168 -121 426q0 256 121 424q133 184 370.5 184t370.5 -184q119 -164 119 -424zM774 590q0 193 -69 289q-66 90 -172.5 90t-172.5 -90q-70 -96 -69 -289q0 -195 69 -291q66 -90 172.5 -90t172.5 90 q69 96 69 291zM807 1380q6 -20 6 -43q0 -72 -76 -71h-69q-20 4 -31 10q-33 14 -64 51l-41 55q-8 -14 -18 -26q-2 -6 -16 -25q-53 -66 -105 -65h-67q-82 0 -82 61q0 25 12 53q18 31 61 88l62 82q41 45 86 45h149q39 0 84 -63z" />
<glyph unicode="&#xf5;" horiz-adv-x="1101" d="M1030 590q0 -258 -121 -426q-131 -184 -370.5 -184t-370.5 184q-121 168 -121 426q0 256 121 424q131 184 370.5 184t370.5 -184q121 -168 121 -424zM780 590q0 193 -69 289q-66 90 -172.5 90t-171.5 -90q-70 -96 -70 -289q0 -195 70 -291q66 -90 172 -90t172 90 q69 96 69 291zM647 1266q-63 0 -116.5 34.5t-77.5 96.5q-4 10 -15 14q-8 4 -12 4q-2 0 -10 -4q-20 -6 -21 -25l2 -8q2 -8 2 -22q0 -31 -18.5 -55.5t-46.5 -32.5q-8 -2 -25 -2q-70 0 -86 65q-6 29 -6 53q0 63 35 116.5t96 78.5q39 16 78 16t82 -16q82 -35 113 -115 q6 -16 14 -16q4 -2 16 -2q25 8 25 31q-2 14 -2 28q0 29 18.5 53.5t46.5 32.5q8 2 23 2q29 0 53.5 -18.5t32.5 -46.5q8 -25 8 -55q0 -63 -36 -115.5t-95 -77.5q-37 -14 -78 -14z" />
<glyph unicode="&#xf6;" horiz-adv-x="1083" d="M809 1464v-49q0 -90 -90 -90h-70q-86 0 -88 94v47q0 90 92 90h68q86 0 88 -92zM526 1464l-2 -49q-4 -90 -90 -90h-69q-86 0 -89 94v47q0 90 93 90h67q84 0 90 -92zM1022 590q0 -262 -119 -426q-133 -184 -370.5 -184t-370.5 184q-121 168 -121 426q0 256 121 424 q133 184 370.5 184t370.5 -184q119 -164 119 -424zM774 590q0 193 -69 289q-66 90 -172.5 90t-172.5 -90q-70 -96 -69 -289q0 -195 69 -291q66 -90 172.5 -90t172.5 90q69 96 69 291z" />
<glyph unicode="&#xf7;" horiz-adv-x="968" d="M608 1161l-2 -49q-4 -90 -90 -90h-70q-86 0 -88 94v47q0 90 93 90h67q84 0 90 -92zM918 786q0 -88 -93 -88h-684q-90 0 -90 90v70q0 88 92 88h684q90 0 91 -92v-68zM608 526l-2 -47q-4 -90 -90 -90h-70q-86 0 -88 94v47q0 90 93 91h67q84 -1 90 -95z" />
<glyph unicode="&#xf8;" horiz-adv-x="1083" d="M1032 588q0 -260 -119 -424q-131 -184 -370 -184q-43 0 -80 6q-31 -59 -98 -60h-68q-78 0 -78 70q0 20 6 39l19 51q-193 162 -193 502q0 258 121 426q131 184 371 184q55 0 86 -8q27 55 96 55h68q78 0 77 -69q0 -20 -6 -39l-18 -50q186 -161 186 -499zM784 588 q0 129 -34 221l-209 -600q106 0 172 90q71 101 71 289zM551 969h-8q-106 0 -172 -90q-70 -96 -70 -291q0 -133 37 -230z" />
<glyph unicode="&#xf9;" d="M63 541l5 544q6 92 90 93h63q92 0 92 -91v-512q0 -371 252 -370q98 0 219 117v763q0 92 88 93h68q92 0 92 -91v-755q0 -98 -137 -215q-164 -139 -342 -140q-186 0 -320 127q-170 165 -170 437zM401 1339l-53 148q-6 20 -6 39q0 70 76 69h69q74 0 103 -73l53 -146 q6 -20 6 -41q0 -70 -76 -69h-67q-76 -1 -105 73z" />
<glyph unicode="&#xfa;" d="M61 1085l2 -526q0 -297 164 -455q133 -127 320 -127q178 0 342 140q137 117 137 215v755q0 90 -92 91h-68q-88 0 -88 -93v-763q-119 -117 -219 -117q-252 0 -252 370v512q0 90 -92 91h-63q-85 -1 -91 -93zM733 1487l-53 -148q-29 -74 -105 -73h-67q-76 0 -76 69 q0 20 6 41l54 146q29 74 102 73h70q76 0 75 -69q0 -19 -6 -39z" />
<glyph unicode="&#xfb;" d="M61 1085l2 -526q0 -297 164 -455q133 -127 320 -127q178 0 342 140q137 117 137 215v755q0 90 -92 91h-68q-88 0 -88 -93v-763q-119 -117 -219 -117q-252 0 -252 370v512q0 90 -92 91h-63q-85 -1 -91 -93zM813 1380q6 -20 6 -43q0 -72 -76 -71h-69q-20 4 -31 10 q-33 14 -63 51l-41 55q-8 -14 -19 -26q-2 -6 -16 -25q-53 -66 -105 -65h-67q-82 0 -82 61q0 25 12 53q18 31 62 88l61 82q41 45 86 45h150q39 0 84 -63z" />
<glyph unicode="&#xfc;" d="M823 1481l-2 -47q-4 -90 -90 -91h-69q-86 0 -89 95v47q0 90 93 90h67q88 0 90 -94zM539 1481v-47q0 -90 -90 -91h-70q-88 0 -90 95l2 47q4 90 90 90h70q86 0 88 -94zM61 1085l2 -526q0 -297 164 -455q133 -127 320 -127q178 0 342 140q137 117 137 215v755q0 90 -92 91 h-68q-88 0 -88 -93v-763q-119 -117 -219 -117q-252 0 -252 370v512q0 90 -92 91h-63q-85 -1 -91 -93z" />
<glyph unicode="&#xfd;" horiz-adv-x="1128" d="M1071 74q0 -176 -137 -295q-164 -141 -342 -141q-129 0 -217 53q-45 27 -45 78q0 20 10 45l27 55q27 39 71 39q27 0 54 -14q45 -27 112.5 -27t138.5 47q68 45 78 111q-106 -57 -229 -58q-188 0 -322 127q-162 156 -161 455v536q0 92 88 93h63q92 0 92 -91v-516 q0 -190 74 -286q63 -88 178 -88q154 0 219 114v774q0 94 88 95h68q92 0 92 -93v-1013zM786 1487l-53 -148q-29 -74 -104 -73h-68q-76 0 -76 69q0 20 7 41l53 146q29 74 102 73h70q76 0 76 -69q-1 -19 -7 -39z" />
<glyph unicode="&#xff;" horiz-adv-x="1128" d="M768 1432v-48q0 -90 -90 -90h-70q-84 0 -88 92v48q0 90 90 90h70q86 0 88 -92zM483 1432v-48q0 -90 -90 -90h-69q-86 0 -88 92v48q0 90 92 90h67q84 0 88 -92zM1024 74q0 -176 -137 -295q-162 -141 -342 -141q-129 0 -217 53q-43 27 -43 76q0 23 10 47l24 55q27 39 72 39 q27 0 53 -14q45 -27 113 -27t139 47q70 45 80 111q-109 -57 -231 -58q-188 0 -322 127q-162 156 -162 455v536q0 92 89 93h63q92 0 92 -91v-516q0 -190 74 -286q63 -88 180 -88q154 0 219 114l-2 238v536q0 94 88 95h70q90 0 90 -93v-1013z" />
<glyph unicode="&#x152;" horiz-adv-x="2021" d="M1970 86q0 -88 -94 -88h-705q-162 0 -161 137q-158 -152 -355 -151q-254 0 -430 237q-174 236 -174 606q0 373 178 584q166 197 426 197q209 0 365 -133q0 119 180 118h678q92 0 92 -92v-69q0 -88 -94 -89h-621v-387h537q92 0 92 -92v-69q0 -84 -92 -90h-537v-461h623 q92 0 92 -90v-68zM1010 778v99q0 307 -115 421q-80 80 -240 80q-125 0 -229 -131q-125 -156 -125 -420q0 -274 127 -456q109 -158 227 -158q145 0 234 106q121 146 121 459z" />
<glyph unicode="&#x153;" horiz-adv-x="1814" d="M1763 588v-74q0 -82 -94 -88h-620q51 -217 225 -217q82 0 145 41q61 43 82 43h96l21 2q59 0 59 -55q0 -82 -106 -164q-125 -94 -297 -94q-231 0 -365 176q-131 -178 -366 -178q-240 0 -371 184q-121 168 -121 426q0 256 121 424q131 184 371 184q236 0 366 -178 q133 176 365 176q238 0 371 -184q118 -164 118 -424zM1509 668q-31 301 -235.5 301t-237.5 -301h473zM784 590q0 193 -69 289q-66 90 -172.5 90t-171.5 -90q-70 -96 -70 -289q0 -195 70 -291q66 -90 172 -90t172 90q69 96 69 291z" />
<glyph unicode="&#x178;" horiz-adv-x="1374" d="M907 1790v-47q0 -90 -90 -90h-69q-84 0 -91 94l2 47q4 90 91 90h69q86 0 88 -94zM623 1790v-47q0 -90 -91 -90h-69q-86 0 -88 94v47q0 90 92 90h68q86 0 88 -94zM1327 1475l-532 -813v-574q0 -90 -90 -90h-70q-88 0 -88 92v582l-520 801q-6 23 -7 40q0 74 76 74h101 q25 -4 32 -8q37 -14 62 -55l385 -590l389 592q37 57 92 63h100q76 0 76 -73q0 -21 -6 -41z" />
<glyph unicode="&#x2c6;" horiz-adv-x="817" d="M784 1335q6 -20 7 -45q0 -72 -74 -71h-70q-25 4 -33 8q-35 14 -63 53l-139 195q-23 -37 -133 -191q-61 -66 -103 -65h-70q-80 0 -79 61q0 27 12 55q127 172 205 289q43 63 98 64h152q10 0 22 -7q31 -16 59 -57z" />
<glyph unicode="&#x2dc;" horiz-adv-x="696" d="M459 1266q-63 0 -116.5 34.5t-78.5 96.5q-4 10 -14 14q-8 4 -12 4q-2 0 -11 -4q-20 -6 -20 -25l2 -8q2 -8 2 -22q0 -31 -18.5 -55.5t-47.5 -32.5q-8 -2 -24 -2q-70 0 -86 65q-6 29 -6 53q0 63 34.5 116.5t96.5 78.5q39 16 77.5 16t81.5 -16q82 -35 113 -115q6 -16 14 -16 q4 -2 17 -2q25 8 24 31q-2 14 -2 28q0 29 18.5 53.5t47.5 32.5q8 2 22 2q29 0 53.5 -18.5t32.5 -46.5q8 -25 9 -55q0 -63 -36 -115.5t-95 -77.5q-37 -14 -78 -14z" />
<glyph unicode="&#x2000;" horiz-adv-x="1085" />
<glyph unicode="&#x2001;" horiz-adv-x="2172" />
<glyph unicode="&#x2002;" horiz-adv-x="1085" />
<glyph unicode="&#x2003;" horiz-adv-x="2172" />
<glyph unicode="&#x2004;" horiz-adv-x="722" />
<glyph unicode="&#x2005;" horiz-adv-x="542" />
<glyph unicode="&#x2006;" horiz-adv-x="360" />
<glyph unicode="&#x2007;" horiz-adv-x="360" />
<glyph unicode="&#x2008;" horiz-adv-x="270" />
<glyph unicode="&#x2009;" horiz-adv-x="434" />
<glyph unicode="&#x200a;" horiz-adv-x="118" />
<glyph unicode="&#x2010;" horiz-adv-x="925" d="M803 582q0 -88 -94 -88h-496q-90 0 -90 90v69q0 88 92 88h496q92 0 92 -92v-67z" />
<glyph unicode="&#x2011;" horiz-adv-x="925" d="M803 582q0 -88 -94 -88h-496q-90 0 -90 90v69q0 88 92 88h496q92 0 92 -92v-67z" />
<glyph unicode="&#x2012;" horiz-adv-x="925" d="M803 582q0 -88 -94 -88h-496q-90 0 -90 90v69q0 88 92 88h496q92 0 92 -92v-67z" />
<glyph unicode="&#x2013;" horiz-adv-x="806" d="M776 786q0 -88 -92 -88h-563q-90 0 -90 90v70q0 88 92 88h563q90 0 90 -92v-68z" />
<glyph unicode="&#x2014;" horiz-adv-x="1191" d="M1161 786q0 -88 -92 -88h-948q-90 0 -90 90v70q0 88 92 88h948q90 0 90 -92v-68z" />
<glyph unicode="&#x2018;" horiz-adv-x="296" d="M27 1202v107q0 12 1 30.5t7 66.5t17 85t36 67.5t59 30.5h99q10 -2 10 -12v-72q0 -14 -14 -14h-64q-25 0 -24 -33v-74h45q74 0 73 -77v-105q0 -76 -73 -76h-101q-71 0 -71 76z" />
<glyph unicode="&#x2019;" horiz-adv-x="421" d="M334 1513v-106q0 -12 -1 -30.5t-7.5 -66.5t-17.5 -85t-35.5 -68t-59.5 -31h-100q-8 2 -9 13v71q0 14 15 15h63q25 0 25 32v74h-45q-74 0 -74 78v104q0 76 74 76h100q72 0 72 -76z" />
<glyph unicode="&#x201a;" horiz-adv-x="421" d="M334 182v-106q0 -12 -1 -30.5t-7.5 -67t-17.5 -85t-35.5 -67.5t-59.5 -31h-100q-8 2 -9 12v72q0 14 15 15h63q25 0 25 32v74h-45q-74 0 -74 78v104q0 76 74 76h100q72 0 72 -76z" />
<glyph unicode="&#x201c;" horiz-adv-x="733" d="M340 1513v-106q0 -12 -1 -30.5t-7 -66.5t-18.5 -85t-39 -68t-61.5 -31h-104q-10 2 -11 13v71q0 14 17 15h65q27 0 27 32v74h-47q-78 0 -78 78v104q0 76 78 76h104q76 0 76 -76zM651 1513v-106q0 -12 -1 -30.5t-7 -66.5t-18.5 -85t-39 -68t-61.5 -31h-104q-10 2 -10 13v71 q0 14 16 15h66q27 0 26 32v74h-47q-78 0 -78 78v104q0 76 78 76h104q76 0 76 -76z" />
<glyph unicode="&#x201d;" horiz-adv-x="733" d="M342 1513v-106q0 -12 -1 -30.5t-7 -66.5t-17.5 -85t-36 -68t-59.5 -31h-100q-8 2 -8 13v71q0 14 14 15h63q25 0 25 32v74h-45q-74 0 -74 78v104q0 76 74 76h98q74 0 74 -76zM637 1513v-106q0 -12 -1 -30.5t-7 -66.5t-17.5 -85t-36 -68t-59.5 -31h-98q-10 2 -10 13v71 q0 14 16 15h61q25 0 25 32v74h-45q-74 0 -74 78v104q0 76 74 76h100q72 0 72 -76z" />
<glyph unicode="&#x201e;" horiz-adv-x="733" d="M342 182q0 -387 -121 -387h-100q-8 2 -8 12v72q0 14 14 15h63q25 0 25 32v74h-45q-74 0 -74 78v104q0 76 74 76h98q74 0 74 -76zM637 182v51q0 -55 -1 -87.5t-4 -93t-10.5 -98.5t-20.5 -79t-34.5 -60.5t-50.5 -19.5h-98q-10 2 -10 12v72q0 14 16 15h61q25 0 25 32v74h-45 q-74 0 -74 78v104q0 76 74 76h100q72 0 72 -76z" />
<glyph unicode="&#x2022;" horiz-adv-x="598" d="M547 575v-59q0 -84 -61.5 -143.5t-147.5 -59.5h-84q-86 0 -144.5 61.5t-58.5 147.5v60q0 86 61.5 145t147.5 59h84q86 0 144.5 -61.5t58.5 -149.5z" />
<glyph unicode="&#x2026;" horiz-adv-x="1382" d="M135 100v121q0 92 92 92h123q90 0 90 -92v-121q0 -92 -90 -92h-123q-92 0 -92 92zM539 100v121q0 92 92 92h121q92 0 92 -92v-121q0 -92 -92 -92h-121q-51 0 -71.5 22.5t-20.5 69.5zM942 100v121q0 92 90 92h123q92 0 92 -92v-121q0 -92 -92 -92h-123q-49 0 -69.5 22.5 t-20.5 69.5z" />
<glyph unicode="&#x202f;" horiz-adv-x="434" />
<glyph unicode="&#x2039;" horiz-adv-x="763" d="M676 1047l-305 -256l266 -297q27 -33 27 -66q0 -35 -31 -63l-51 -46q-29 -27 -64 -26q-33 0 -63 33l-381 426q-23 29 -23 55q0 37 37 72l430 360q27 25 60 25q39 0 69 -37q66 -78 66 -115q0 -34 -37 -65z" />
<glyph unicode="&#x203a;" horiz-adv-x="763" d="M690 752l-381 -426q-27 -33 -63 -33q-35 0 -64 26l-53 46q-31 29 -31 59q0 35 29 70l266 297l-305 256q-37 31 -37 65q0 37 66 115q31 37 67 37q33 0 60 -25l432 -360q37 -33 37 -72q0 -26 -23 -55z" />
<glyph unicode="&#x2044;" horiz-adv-x="854" d="M817 1538l-538 -1526q-29 -74 -103 -73h-67q-78 0 -78 69q0 20 6 39l538 1526q27 74 103 74h70q76 0 75 -70q0 -16 -6 -39z" />
<glyph unicode="&#x205f;" horiz-adv-x="542" />
<glyph unicode="&#x20ac;" horiz-adv-x="1277" d="M1210 1348l-69 -72q-31 -31 -60 -31q-27 0 -49 29q-74 104 -239 104q-90 0 -179 -75q-98 -86 -145 -242h358q90 0 91 -92v-68q0 -88 -93 -88h-387q0 -10 4 -88h385q90 0 91 -90v-70q0 -88 -93 -88h-319q51 -125 139 -196q76 -68 148 -68q78 0 147 39q29 16 80 72 q41 45 72 45q25 0 51 -27l65 -68q18 -18 19 -45q0 -31 -21 -63q-72 -86 -194 -137q-104 -45 -219 -45q-184 0 -336 133q-147 133 -219 360h-97q-90 0 -90 90v70q0 84 92 88h50q-4 78 -5 88h-47q-90 0 -90 90v70q0 88 92 88h66q53 266 215 409q156 137 369 138 q242 0 403 -162q31 -31 31 -62q-1 -20 -17 -36z" />
<glyph unicode="&#x2122;" horiz-adv-x="1540" d="M1468 928q0 -45 -41 -45h-63q-45 0 -45 47v403q0 63 -33 100t-80 37q-88 0 -92 -135q2 -41 2 -413q0 -39 -39 -39h-73q-39 0 -39 43v409q0 135 -91 135q-45 0 -75 -32q-37 -41 -37 -103v-411q-4 -41 -35 -41h-78q-37 0 -37 43v415q0 137 97 215q72 57 165 58 q98 0 166 -68q68 68 166 68q94 0 166 -58q96 -78 96 -215v-413zM606 1495q0 -43 -31 -43q-10 0 -16 2h-166v-428q0 -2 21.5 -28.5t21.5 -41.5q0 -12 -8 -20l-43 -49q-12 -18 -31 -19q-14 0 -30 17q-82 63 -82 147v422h-170q-41 0 -41 39v70q0 43 47 43h479q49 0 49 -47v-64z " />
<glyph unicode="&#xe000;" horiz-adv-x="1180" d="M0 1180h1180v-1180h-1180v1180z" />
<glyph unicode="&#xfb01;" horiz-adv-x="1265" d="M1173 1415l-2 -49q-4 -90 -90 -90h-70q-86 0 -88 94v47q0 90 92 90h68q84 0 90 -92zM1173 1083v-991q0 -90 -90 -90h-70q-88 0 -88 92v991q0 92 92 93h68q86 -1 88 -95zM934 1440l-25 -56q-29 -37 -71 -36q-29 0 -54 12q-53 29 -112 29q-70 0 -140 -46q-80 -49 -79 -112 v-109h252q90 0 90 -92v-51q0 -88 -93 -88h-249v-801q0 -90 -91 -90h-69q-84 0 -90 92v799h-82q-90 0 -90 90v53q0 88 92 88h80v78q0 137 139 277q164 139 342 139q135 0 217 -51q43 -29 43 -76q0 -22 -10 -49z" />
<glyph unicode="&#xfb02;" horiz-adv-x="1288" d="M1245 78l-37 -47q-35 -41 -78 -41q-25 0 -45 14q-162 100 -162 293v1198q0 94 88 94h70q90 0 90 -92v-1216q0 -51 39 -78q47 -35 47 -82q0 -23 -12 -43zM934 1440l-25 -56q-29 -37 -71 -36q-29 0 -54 12q-53 29 -112 29q-70 0 -140 -46q-80 -49 -79 -112v-109h252 q90 0 90 -92v-51q0 -88 -93 -88h-249v-801q0 -90 -91 -90h-69q-84 0 -90 92v799h-82q-90 0 -90 90v53q0 88 92 88h80v78q0 137 139 277q164 139 342 139q135 0 217 -51q43 -29 43 -76q0 -22 -10 -49z" />
<glyph unicode="&#xfb03;" horiz-adv-x="2097" d="M2005 1415l-2 -49q-4 -90 -90 -90h-70q-86 0 -88 94v47q0 90 92 90h68q84 0 90 -92zM2005 1083v-991q0 -90 -90 -90h-70q-88 0 -88 92v991q0 92 92 93h68q86 -1 88 -95zM1765 1440l-25 -56q-29 -37 -71 -36q-29 0 -54 12q-53 29 -112 29q-70 0 -140 -46q-80 -49 -79 -112 v-109h252q90 0 90 -92v-51q0 -88 -93 -88h-249v-801q0 -90 -91 -90h-69q-84 0 -90 92v799h-82q-90 0 -90 90v53q0 88 92 88h80v78q0 137 139 277q164 139 342 139q135 0 217 -51q43 -29 43 -76q0 -22 -10 -49zM934 1440l-25 -56q-29 -37 -71 -36q-29 0 -54 12 q-53 29 -112 29q-70 0 -140 -46q-80 -49 -79 -112v-109h252q90 0 90 -92v-51q0 -88 -93 -88h-249v-801q0 -90 -91 -90h-69q-84 0 -90 92v799h-82q-90 0 -90 90v53q0 88 92 88h80v78q0 137 139 277q164 139 342 139q135 0 217 -51q43 -29 43 -76q0 -22 -10 -49z" />
<glyph unicode="&#xfb04;" horiz-adv-x="2119" d="M2077 78l-37 -47q-35 -41 -78 -41q-25 0 -45 14q-162 100 -162 293v1198q0 94 88 94h70q90 0 90 -92v-1216q0 -51 39 -78q47 -35 47 -82q0 -23 -12 -43zM1765 1440l-25 -56q-29 -37 -71 -36q-29 0 -54 12q-53 29 -112 29q-70 0 -140 -46q-80 -49 -79 -112v-109h252 q90 0 90 -92v-51q0 -88 -93 -88h-249v-801q0 -90 -91 -90h-69q-84 0 -90 92v799h-82q-90 0 -90 90v53q0 88 92 88h80v78q0 137 139 277q164 139 342 139q135 0 217 -51q43 -29 43 -76q0 -22 -10 -49zM934 1440l-25 -56q-29 -37 -71 -36q-29 0 -54 12q-53 29 -112 29 q-70 0 -140 -46q-80 -49 -79 -112v-109h252q90 0 90 -92v-51q0 -88 -93 -88h-249v-801q0 -90 -91 -90h-69q-84 0 -90 92v799h-82q-90 0 -90 90v53q0 88 92 88h80v78q0 137 139 277q164 139 342 139q135 0 217 -51q43 -29 43 -76q0 -22 -10 -49z" />
<glyph horiz-adv-x="552" />
</font>
</defs>
</svg>
